/* XPM */
static char *result[] = {
/* columns rows colors chars-per-pixel */
"86 86 185 2 ",
"   c #000000",
".  c #0C0000",
"X  c #0B0B0C",
"o  c #110B0D",
"O  c #0D120C",
"+  c #141F01",
"@  c #141317",
"#  c #1D1619",
"$  c #16191F",
"%  c #2F000A",
"&  c #20171A",
"*  c #32151C",
"=  c #36201D",
"-  c #181B21",
";  c #1F2427",
":  c #1F2B2E",
">  c #242225",
",  c #292226",
"<  c #2B2529",
"1  c #21282B",
"2  c #36242A",
"3  c #232631",
"4  c #362F33",
"5  c #2B3134",
"6  c #363236",
"7  c #373338",
"8  c #3D353A",
"9  c #3E3A3E",
"0  c #3D3035",
"q  c #433B3F",
"w  c #453238",
"e  c #343C44",
"r  c #3F3B40",
"t  c #353946",
"y  c #433D42",
"u  c #3B424D",
"i  c #3D4749",
"p  c #464145",
"a  c #4D464C",
"s  c #444A4D",
"d  c #4C454A",
"f  c #534148",
"g  c #53494F",
"h  c #514346",
"j  c #424754",
"k  c #424B53",
"l  c #4C4D52",
"z  c #464D5B",
"x  c #494F5E",
"c  c #564E54",
"v  c #584D53",
"b  c #4B535C",
"n  c #4E5A5F",
"m  c #555056",
"M  c #525C5E",
"N  c #5E565A",
"B  c #645B5E",
"V  c #625557",
"C  c #4F5A64",
"Z  c #515767",
"A  c #525D64",
"S  c #545B6B",
"D  c #5D5B61",
"F  c #635B62",
"G  c #695F65",
"H  c #556165",
"J  c #596667",
"K  c #5A656A",
"L  c #5D6A6E",
"P  c #57646A",
"I  c #5B6273",
"U  c #5E6972",
"Y  c #5F6678",
"T  c #65646B",
"R  c #6C636B",
"E  c #60686F",
"W  c #71666E",
"Q  c #6E6A70",
"!  c #626C79",
"~  c #736C75",
"^  c #796F75",
"/  c #647177",
"(  c #6C7174",
")  c #6B747C",
"_  c #69777C",
"`  c #77767D",
"'  c #7B737B",
"]  c #666E81",
"[  c #677083",
"{  c #697284",
"}  c #6E7C84",
"|  c #6D7589",
" . c #7E7A82",
".. c #727A8E",
"X. c #737C90",
"o. c #827D85",
"O. c #758185",
"+. c #7E8186",
"@. c #75838B",
"#. c #7B848C",
"$. c #798A8E",
"%. c #778096",
"&. c #788394",
"*. c #7D8D96",
"=. c #7A839A",
"-. c #7F89A0",
";. c #808087",
":. c #84838B",
">. c #88878F",
",. c #848A8E",
"<. c #868D93",
"1. c #8B8E96",
"2. c #8E8E98",
"3. c #839296",
"4. c #84949C",
"5. c #8D939B",
"6. c #8A999E",
"7. c #899297",
"8. c #93939D",
"9. c #828CA3",
"0. c #8797A0",
"q. c #8C9CA3",
"w. c #8792A9",
"e. c #8A95AD",
"r. c #8E9EA8",
"t. c #9496A2",
"y. c #9897A7",
"u. c #929CA4",
"i. c #9898A6",
"p. c #969FA8",
"a. c #9B9BAC",
"s. c #8D99B1",
"d. c #919CB5",
"f. c #8FA1AB",
"g. c #91A1A7",
"h. c #93A2AC",
"j. c #9AA4AE",
"k. c #95A5B2",
"l. c #9DA4B2",
"z. c #96A9B1",
"x. c #9AABB5",
"c. c #97A3BD",
"v. c #9AA5BC",
"b. c #9CAEB9",
"n. c #9EB1BB",
"m. c #A0AFB9",
"M. c #A1A5B8",
"N. c #A1B3BE",
"B. c #9AA6C1",
"V. c #9EAAC5",
"C. c #9FABC8",
"Z. c #A5AFC0",
"A. c #A1AECA",
"S. c #A3B4C2",
"D. c #A9B4C6",
"F. c #A6B9C6",
"G. c #A4B1CD",
"H. c #A8B6CF",
"J. c #AABDCC",
"K. c #A9B6D3",
"L. c #ACBBD4",
"P. c #AEBDD9",
"I. c #B5BED7",
"U. c #B1BFDD",
"Y. c #AEC1D2",
"T. c #B1C3D7",
"R. c #B4C4DC",
"E. c #B7C8DD",
"W. c #B8CADF",
"Q. c #B4C3E1",
"!. c #B7C9E1",
"~. c #BACBE3",
"^. c #BCCCEA",
"/. c #BED1E9",
"(. c #C0CBE7",
"). c #C1CFED",
"_. c #C2D2EE",
"`. c #C0CFF0",
"'. c #C4D4F3",
"]. c #C9DAF7",
"[. c #CBDBFB",
"{. c #C7D9F5",
"}. c #CFE0FF",
"|. c #D1E1FF",
" X c None",
/* pixels */
" X X X X X X X X X X X X X X X X X X X X X X X X X X X X X X X X X X X X X X X X X X X X X X X X X X X X X X X X X X X X X X X X X X X X X X X X X X X X X X X X X X X X X X",
" X X X X X X X X X X X X X X X X X X X X X X X X X X X X X X X X X X X X X X X X X X X X X X X X X X X X X X X X X X X X X X X X X X X X X X X X X X X X X X X X X X X X X X",
" X X X X X X X X X X X X X X X X X X X X X X X X X X X X X X X X X X X X X X X X X X X X X X X X X X X X X X X X X X X X X X X X X X X X X X X X X X X X X X X X X X X X X X",
" X X X X X X X X X X X X X X X X X X X X X X X X X X X X X X X X X X X X X X X X X X X X X X X X X X X X X X X X X X X X X X X X X X X X X X X X X X X X X X X X X X X X X X",
" X X X X X X X X X X X X X X X X X X X X X X X X X X X X X X X X X X X X X X X X X X X X X X X X X X X X X X X X X X X X X X X X X X X X X X X X X X X X X X X X X X X X X X",
" X X X X X X X X X X X X X X X X X X X X X X X X X X X X X X X X X X X X X X X X X X X X X X X X X X X X X X X X X X X X X X X X X X X X X X X X X X X X X X X X X X X X X X",
" X X X X X X X X X X X X X X X X X X X X X X X X X X X X X X X X X X X X X X X X X X X X X X X X X X X X X X X X X X X X X X X X X X X X X X X X X X X X X X X X X X X X X X",
" X X X X X X X X X X X X X X X X X X X X X X X X X X X X X X X X X X X X X X X X X X X X X X X X X X X X X X X X X X X X X X X X X X X X X X X X X X X X X X X X X X X X X X",
" X X X X X X X X X X X X X X X X X X X X X X X X X X X X X X X X X X X X X X X X X X X X X X X X X X X X X X X X X X X X X X X X X X X X X X X X X X X X X X X X X X X X X X",
" X X X X X X X X X X X X X X X X X X X X X X X X X X X X X X X X X X X X X X X X X X X X X X X X X X X X X X X X X X X X X X X X X X X X X X X X X X X X X X X X X X X X X X",
" X X X X X X X X X X X X X X X X X X X X X X X X X X X X X X X X X X X X X X X X X X X X X X X X X X X X X X X X X X X X X X X X X X X X X X X X X X X X X X X X X X X X X X",
" X X X X X X X X X X X X X X X X X X X X X X X X X X X X X X X X X X X X X X X X X X X X X X X X X X X X X X X X X X X X X X X X X X X X X X X X X X X X X X X X X X X X X X",
" X X X X X X X X X X X X X X X X X X X X X X X X X X X X X X X X X X X X X X X X X X X X X X X X X X X X X X X X X X X X X X X X X X X X X X X X X X X X X X X X X X X X X X",
" X X X X X X X X X X X X X X X X X X X X X X X X X X X X X X X X X X X X X X X X X X X X X X X X X X X X X X X X X X X X X X X X X X X X X X X X X X X X X X X X X X X X X X",
" X X X X X X X X X X X X X X X X X X X X X X X X X X X X X X X X X X X X X X X X X X X X X X X X X X X X X X X X X X X X X X X X X X X X X X X X X X X X X X X X X X X X X X",
" X X X X X X X X X X X X X X X X X X X X X X X X X X X X X X X X X X X X X X X X X X X X X X X X X X X X X X X X X X X X X X X X X X X X X X X X X X X X X X X X X X X X X X",
" X X X X X X X X X X X X X X X X X X X X X X X X X X X X X X X X X X X X X X X X X X X X X X X X X X X X X X X X X X X X X X X X X X X X X X X X X X X X X X X X X X X X X X",
" X X X X X X X X X X X X X X X X X X X X X X X X X X X X X X X X X X X X X X X X X X X X X X X X X X X X X X X X X X X X X X X X X X X X X X X X X X X X X X X X X X X X X X",
" X X X X X X X X X X X X X X X X X X X X X X X X X X X                           X X X X X X X X X X X X X X X X X X X X X X X X X X X X X X X X X X X X X X X X X X X X X X",
" X X X X X X X X X X X X X X X X X X X X X X X X X X X                           X X X X X X X X X X X X X X X X X X X X X X X X X X X X X X X X X X X X X X X X X X X X X X",
" X X X X X X X X X X X X X X X X X X X X X X X X X X X] | %.%.X...X.X.X.%.=...]  X X X X X X X X X X X X X X X X X X X X X X X X X X X X X X X X X X X X X X X X X X X X X X",
" X X X X X X X X X X X X X X X X X X X X X X X X X  x 9.G.R.Q.L.L.K.L.K.R.Q.K.s.S    X X X X X X X X X X X X X X X X X X X X X X X X X X X X X X X X X X X X X X X X X X X X",
" X X X X X X X X X X X X X X X X X X X X X X X X    I B.^.|.}.].'.].[.[.[.|.'.G.|      X X X X X X X X X X X X X X X X X X X X X X X X X X X X X X X X X X X X X X X X X X X",
" X X X X X X X X X X X X X X X X X X X X X X X X+ i *.K._.|.|.[.[.[.].[.[.|.{.R.c.[ x j  X X X X X X X X X X X X X X X X X X X X X X X X X X X X X X X X X X X X X X X X X X",
" X X X X X X X X X X X X X X X X X X X X X X  s L O.f.S.L.E.W.~.~.~.~.~.~.W.E.R.R.A.e.{ -  X X X X X X X X X X X X X X X X X X X X X X X X X X X X X X X X X X X X X X X X X",
" X X X X X X X X X X X X X X X X X X X X X    b @.f.b.b.b.n.N.N.S.S.S.S.N.b.N.T.'.'.L.X.-    X X X X X X X X X X X X X X X X X X X X X X X X X X X X X X X X X X X X X X X X",
" X X X X X X X X X X X X X X X X X X X X X    H 4.x.F.F.S.n.k.q.0.4.4.q.q.q.x.E.[.|.^.e.-    X X X X X X X X X X X X X X X X X X X X X X X X X X X X X X X X X X X X X X X X",
" X X X X X X X X X X X X X X X X X X X X X    H 4.x.Y.R.E.L.c.@.L J E _ $.6.b.E.[.[.^.w.-    X X X X X X X X X X X X X X X X X X X X X X X X X X X X X X X X X X X X X X X X",
" X X X X X X X X X X X X X X X X X X X X X    n $.z.J.(.].(.c.Y     O k _ 4.n.E.].[.Q.-.-    X X X X X X X X X X X X X X X X X X X X X X X X X X X X X X X X X X X X X X X X",
" X X X X X X X X X X X X X X X X X X X X X    b O.r.J.'.|.'.B.Z         J 3.N.E.[.[.Q.-.-    X X X X X X X X X X X X X X X X X X X X X X X X X X X X X X X X X X X X X X X X",
" X X X X X X X X X X X X X X X X X X X X X    s ( 3.N.(.|.'.B.t         M *.n.W.].[.Q.=.$    X X X X X X X X X X X X X X X X X X X X X X X X X X X X X X X X X X X X X X X X",
" X X X X X X X X X X X X X X X X X X X X X    y N  .M.W.}.'.c.j         J 4.N.W.].].Q.9.$    X X X X X X X X X X X X X X X X X X X X X X X X X X X X X X X X X X X X X X X X",
" X X X X X X X X X X X X X X X X X X X X X    8 V ^ i.I.].^.V.{ u : t S } 6.n.E.].[.Q.9.@    X X X X X X X X X X X X X X X X X X X X X X X X X X X X X X X X X X X X X X X X",
" X X X X X X X X X X X X X X X X X X X X X    y B ' t.D.R.!.L.v.s.s.d.d.d.j.n.E.[.[.Q.X.     X X X X X X X X X X X X X X X X X X X X X X X X X X X X X X X X X X X X X X X X",
" X X X X X X X X X X X X X X X X X X X X X    p G o.8.j.S.L.E.^._.'.^.^.L.n.b.Y.].[.Q.%.     X X X X X X X X X X X X X X X X X X X X X X X X X X X X X X X X X X X X X X X X",
" X X X X X X X X X X X X X X X X X X X X X    r B ' >.5.g.N.R.'.[.|.|.].~.S.n.L.'.].R.w.j    X X X X X X X X X X X X X X X X X X X X X X X X X X X X X X X X X X X X X X X X",
" X X X X X X X X X X X X X X X X X X X X X X  7 g F ` :.1.j.D.R.(._.{._.E.F.n.F.E.~.R.H.e.=.S  X X X X X X X X X X X X X X X X X X X X X X X X X X X X X X X X X X X X X X X",
" X X X X X X X X X X X X X X X X X X X X X X X X, 4 D ` >.8.i.a.M.D.J.Y.J.S.n.S.S.J.R./.^.A.|      X X X X X X X X X X X X X X X X X X X X X X X X X X X X X X X X X X X X X",
" X X X X X X X X X X X X X X X X X X X X X X X X    6 D ' o.o.' o.1.g.z.x.x.x.z.h.x.I.{.}.^.d.j    X X X X X X X X X X X X X X X X X X X X X X X X X X X X X X X X X X X X X",
" X X X X X X X X X X X X X X X X X X X X X X X X X  # a B W G V B ( O.*.*.*.4.3.3.t.S.~._.^.L.d.| S  X X X X X X X X X X X X X X X X X X X X X X X X X X X X X X X X X X X X",
" X X X X X X X X X X X X X X X X X X X X X X X X X X X8 y d p q p l M H A A J ) ;.8.j.N.Y.T./.~.A.X.     X X X X X X X X X X X X X X X X X X X X X X X X X X X X X X X X X X",
" X X X X X X X X X X X X X X X X X X X X X X X X X X X                      o a W o.5.t.z.Y._.}.^.d.j    X X X X X X X X X X X X X X X X X X X X X X X X X X X X X X X X X X",
" X X X X X X X X X X X X X X X X X X X X X X X X X X X X                      * y R  .6.z.Y._.{._.P.s.] Z  X X X X X X X X X X X X X X X X X X X X X X X X X X X X X X X X X",
" X X X X X X X X X X X X X X X X X X X X X X X X X X X X X X X X X X X X X X X X. 0 ( 6.x.Y.Y.T.E.^.^.C.%.     X X X X X X X X X X X X X X X X X X X X X X X X X X X X X X X",
" X X X X X X X X X X X X X X X X X X X X X X X X X X X X X X X X X X X X X X X X  o L -.n.n.b.x.J._.[.^.c.z    X X X X X X X X X X X X X X X X X X X X X X X X X X X X X X X",
" X X X X X X X X X X X X X X X X X X X X X X X X X X X X X X X X X X X X X X Xu k A } $.4.g.6.6.N.~.].'.P.e.Y b  X X X X X X X X X X X X X X X X X X X X X X X X X X X X X X",
" X X X X X X X X X X X X X X X X X X X X X X X X X X X X X X X X X X X X X X; J &.4.4.O./ _ +.1.l.F.R.!.^.Q.C.X.3    X X X X X X X X X X X X X X X X X X X X X X X X X X X X",
" X X X X X X X X X X X X X X X X X X X X X X X X X X X X X X X X X X X X X  1 _ g.x.0.U : 8 R o.8.u.x.J.'.[.^.c.C      X X X X X X X X X X X X X X X X X X X X X X X X X X X",
" X X X X X X X X X X X X X X X X X X X X X X X X X X X X X X X X X X X X X  ; L 4.h.*.C     y R o.,.6.N.W.].{.U.e.S j  X X X X X X X X X X X X X X X X X X X X X X X X X X X",
" X X X X X X X X X X X X X X X X X X X X X X X X X X X X X X X X X X X X X X XA / } / k  X. 2 c Q  .1.j.D.R.W.~.Q.V.=.t    X X X X X X X X X X X X X X X X X X X X X X X X X",
" X X X X X X X X X X X X X X X X X X X X X X X X X X X X X X X X X X X X X X X X5 5 5  X X X  @ g ~ o.8.g.x.F./.].).B.Z      X X X X X X X X X X X X X X X X X X X X X X X X",
" X X X X X X X X X X X X X X X X X X X X X X X X X X X X X X X X X X X X X X X X       X X X X  , g R  .3.g.S.~.[.].U.e.S j  X X X X X X X X X X X X X X X X X X X X X X X X",
" X X X X X X X X X X X X X X X X X X X X X X X X X X X X X X X X X X X X X X X X X X X X X X X X  % w T $.g.N.Y.W.^.~.!.A.9.Y    X X X X X X X X X X X X X X X X X X X X X X",
" X X X X X X X X X X X X X X X X X X X X X X X X X X X X X X X X X X X X X X X X X X X X X X X X X    l @.j.N.N.N.F.^.{.).A.[      X X X X X X X X X X X X X X X X X X X X X",
" X X X X X X X X X X X X X X X X X X X X X X X X X X X X X X X X X X X X X X X X X X X X X X X X X  : P *.z.n.z.g.x.R.'._.A.]      X X X X X X X X X X X X X X X X X X X X X",
" X X X X X X X X X X X X X X X X X X X X X X X X X X X X X X X X X X X X X X X X X X X X X X X Xe H _ *.f.b.x.z.6.t.v.G.B.9.Y    X X X X X X X X X X X X X X X X X X X X X X",
" X X X X X X X X X X X X X X X X X X X X X X X X X X X X X X X X X X X X X X X X X X X X X X    k } q.x.b.n.x.h.8.>. .{ Z z  X X X X X X X X X X X X X X X X X X X X X X X X",
" X X X X X X X X X X X X X X X X X X X X X X X X X X X X X X X X X X X X X X X X X X X X X X  # E 4.x.S.N.b.h.t.:.W h      X X X X X X X X X X X X X X X X X X X X X X X X X",
" X X X X X X X X X X X X X X X X X X X X X X X X X X X X X X X X X X X X X X X X X X X X X4 y N #.g.n.S.N.j.5.:.^ g =    X X X X X X X X X X X X X X X X X X X X X X X X X X",
" X X X X X X X X X X X X X X X X X X X X X X X X X X X X X X X X X X X X X X X X X X X    y F ' 2.h.b.n.j.8.:.~ c , .  X X X X X X X X X X X X X X X X X X X X X X X X X X X",
" X X X X X X X X X X X X X X X X X X X X X X X X X X X X X X X X X X X X X X X X X X X    p R  .2.p.x.k.t.:.~ v ,    X X X X X X X X X X X X X X X X X X X X X X X X X X X X",
" X X X X X X X X X X X X X X X X X X X X X X X X X X X X X X X X X X X X X X X X X X X X  8 c R :.5.g.t.<.~ v 8    X X X X X X X X X X X X X X X X X X X X X X X X X X X X X",
" X X X X X X X X X X X X X X X X X X X X X X X X X X X X X X X X X X X X X X X X X X X X X X< 9 T :.2.1.` m < &  X X X X X X X X X X X X X X X X X X X X X X X X X X X X X X",
" X X X X X X X X X X X X X X X X X X X X X X X X X X X X X X X X X X X X X X X X X X X X X X    9 R  .' N ,    X X X X X X X X X X X X X X X X X X X X X X X X X X X X X X X",
" X X X X X X X X X X X X X X X X X X X X X X X X X X X X X X X X X X X X X X X X X X X X X X X  < m G F d      X X X X X X X X X X X X X X X X X X X X X X X X X X X X X X X",
" X X X X X X X X X X X X X X X X X X X X X X X X X X X X X X X X X X X X X X X X X X X X X X X X X9 p y 7  X X X X X X X X X X X X X X X X X X X X X X X X X X X X X X X X X",
" X X X X X X X X X X X X X X X X X X X X X X X X X X X X X X X X X X X X X X X X X X X X X X X X X         X X X X X X X X X X X X X X X X X X X X X X X X X X X X X X X X X",
" X X X X X X X X X X X X X X X X X X X X X X X X X X X X X X X X X X X X X X X X X X X X X X X X X       X X X X X X X X X X X X X X X X X X X X X X X X X X X X X X X X X X",
" X X X X X X X X X X X X X X X X X X X X X X X X X X X X X X X X X X X X X X X X X X X X X X X X X X X X X X X X X X X X X X X X X X X X X X X X X X X X X X X X X X X X X X",
" X X X X X X X X X X X X X X X X X X X X X X X X X X X X X X X X X X X X X X X X X X X X X X X X X X X X X X X X X X X X X X X X X X X X X X X X X X X X X X X X X X X X X X",
" X X X X X X X X X X X X X X X X X X X X X X X X X X X X X X X X X X X X X X X X X X X X X X X X X X X X X X X X X X X X X X X X X X X X X X X X X X X X X X X X X X X X X X",
" X X X X X X X X X X X X X X X X X X X X X X X X X X X X X X X X X X X X X X X X X X X X X X X X X X X X X X X X X X X X X X X X X X X X X X X X X X X X X X X X X X X X X X",
" X X X X X X X X X X X X X X X X X X X X X X X X X X X X X X X X X X X X X X X X X X X X X X X X X X X X X X X X X X X X X X X X X X X X X X X X X X X X X X X X X X X X X X",
" X X X X X X X X X X X X X X X X X X X X X X X X X X X X X X X X X X X X X X X X X X X X X X X X X X X X X X X X X X X X X X X X X X X X X X X X X X X X X X X X X X X X X X",
" X X X X X X X X X X X X X X X X X X X X X X X X X X X X X X X X X X X X X X X X X X X X X X X X X X X X X X X X X X X X X X X X X X X X X X X X X X X X X X X X X X X X X X",
" X X X X X X X X X X X X X X X X X X X X X X X X X X X X X X X X X X X X X X X X X X X X X X X X X X X X X X X X X X X X X X X X X X X X X X X X X X X X X X X X X X X X X X",
" X X X X X X X X X X X X X X X X X X X X X X X X X X X X X X X X X X X X X X X X X X X X X X X X X X X X X X X X X X X X X X X X X X X X X X X X X X X X X X X X X X X X X X",
" X X X X X X X X X X X X X X X X X X X X X X X X X X X X X X X X X X X X X X X X X X X X X X X X X X X X X X X X X X X X X X X X X X X X X X X X X X X X X X X X X X X X X X",
" X X X X X X X X X X X X X X X X X X X X X X X X X X X X X X X X X X X X X X X X X X X X X X X X X X X X X X X X X X X X X X X X X X X X X X X X X X X X X X X X X X X X X X",
" X X X X X X X X X X X X X X X X X X X X X X X X X X X X X X X X X X X X X X X X X X X X X X X X X X X X X X X X X X X X X X X X X X X X X X X X X X X X X X X X X X X X X X",
" X X X X X X X X X X X X X X X X X X X X X X X X X X X X X X X X X X X X X X X X X X X X X X X X X X X X X X X X X X X X X X X X X X X X X X X X X X X X X X X X X X X X X X",
" X X X X X X X X X X X X X X X X X X X X X X X X X X X X X X X X X X X X X X X X X X X X X X X X X X X X X X X X X X X X X X X X X X X X X X X X X X X X X X X X X X X X X X",
" X X X X X X X X X X X X X X X X X X X X X X X X X X X X X X X X X X X X X X X X X X X X X X X X X X X X X X X X X X X X X X X X X X X X X X X X X X X X X X X X X X X X X X",
" X X X X X X X X X X X X X X X X X X X X X X X X X X X X X X X X X X X X X X X X X X X X X X X X X X X X X X X X X X X X X X X X X X X X X X X X X X X X X X X X X X X X X X",
" X X X X X X X X X X X X X X X X X X X X X X X X X X X X X X X X X X X X X X X X X X X X X X X X X X X X X X X X X X X X X X X X X X X X X X X X X X X X X X X X X X X X X X",
" X X X X X X X X X X X X X X X X X X X X X X X X X X X X X X X X X X X X X X X X X X X X X X X X X X X X X X X X X X X X X X X X X X X X X X X X X X X X X X X X X X X X X X"
};
