/* XPM */
static char *_d03845935f44014e4ca0bd3f9108e5dtJt2v6Dw8g0z7FE0[] = {
/* columns rows colors chars-per-pixel */
"73 85 256 2 ",
"   c None",
".  c #000000",
"X  c #060007",
"o  c #1B0000",
"O  c #010016",
"+  c #330000",
"@  c #2F040F",
"#  c #000024",
"$  c #00002C",
"%  c #07042B",
"&  c #19002D",
"*  c #000132",
"=  c #080434",
"-  c #190432",
";  c #250033",
":  c #330031",
">  c #3A0136",
",  c #381834",
"<  c #330D2A",
"1  c #00302C",
"2  c #352431",
"3  c #3A2632",
"4  c #3F2832",
"5  c #3B2A2E",
"6  c #4A0000",
"7  c #450002",
"8  c #5C0000",
"9  c #530004",
"0  c #4E061A",
"q  c #650000",
"w  c #680000",
"e  c #681600",
"r  c #651304",
"t  c #671215",
"y  c #562B11",
"u  c #48002A",
"i  c #460032",
"p  c #4A0033",
"a  c #480239",
"s  c #560534",
"d  c #461B36",
"f  c #4B1937",
"g  c #521F38",
"h  c #561537",
"j  c #570428",
"k  c #651730",
"l  c #46242D",
"z  c #462633",
"x  c #412932",
"c  c #4C2934",
"v  c #5E2635",
"b  c #582638",
"n  c #593435",
"m  c #532F2E",
"M  c #652236",
"N  c #662838",
"B  c #693738",
"V  c #723B34",
"C  c #743F39",
"Z  c #723738",
"A  c #652B2A",
"S  c #713510",
"D  c #005E1D",
"F  c #524134",
"G  c #584839",
"H  c #584F36",
"J  c #6C4832",
"K  c #764039",
"L  c #794339",
"P  c #7A4B38",
"I  c #685A38",
"U  c #714E2B",
"Y  c #7A7336",
"T  c #625B17",
"R  c #162155",
"E  c #2C4E6A",
"W  c #534546",
"Q  c #4B4A55",
"!  c #756C72",
"~  c #5D5762",
"^  c #873F00",
"/  c #944500",
"(  c #8F4B14",
")  c #AE6C08",
"_  c #875539",
"`  c #915236",
"'  c #88663C",
"]  c #97693C",
"[  c #907333",
"{  c #A56939",
"}  c #A96B38",
"|  c #A26638",
" . c #AA7233",
".. c #B47637",
"X. c #AA6B28",
"o. c #A05D1E",
"O. c #C87C02",
"+. c #C87E2E",
"@. c #956E41",
"#. c #956F4B",
"$. c #8E6C50",
"%. c #8D6D6A",
"&. c #8B6C64",
"*. c #927670",
"=. c #936A4C",
"-. c #C17E46",
";. c #0B9C1E",
":. c #5D9F06",
">. c #3D9E43",
",. c #71A469",
"<. c #68C646",
"1. c #948538",
"2. c #948B2E",
"3. c #A8943B",
"4. c #B09238",
"5. c #A7A018",
"6. c #D58B04",
"7. c #FFAD00",
"8. c #F8A400",
"9. c #FFB401",
"0. c #F8AE12",
"q. c #CC8836",
"w. c #D38D37",
"e. c #D18A38",
"r. c #D69233",
"t. c #DB9437",
"y. c #CF892B",
"u. c #E49934",
"i. c #CAB335",
"p. c #EFA027",
"a. c #FBA82D",
"s. c #FFB52D",
"d. c #EDA234",
"f. c #F2A535",
"g. c #FDAD34",
"h. c #F7A935",
"j. c #FFB334",
"k. c #FFB839",
"l. c #EEB134",
"z. c #DDA707",
"x. c #A4CD18",
"c. c #FECB0F",
"v. c #D7C335",
"b. c #F5D234",
"n. c #FEE83C",
"m. c #FFF03C",
"M. c #E7DF19",
"N. c #948744",
"B. c #988A45",
"V. c #94885A",
"C. c #A89847",
"Z. c #B79A49",
"A. c #AD8F4E",
"S. c #B9A84B",
"D. c #BBAB52",
"F. c #968A70",
"G. c #AE9571",
"H. c #B6A776",
"J. c #C6A849",
"K. c #C8AA52",
"L. c #C7B953",
"P. c #C9B751",
"I. c #CEB64D",
"U. c #FAB149",
"Y. c #C8B272",
"T. c #EFB572",
"R. c #CD9661",
"E. c #AFD06E",
"W. c #D8C34A",
"Q. c #D9C455",
"!. c #C2DF59",
"~. c #FECA49",
"^. c #F8D847",
"/. c #EBD75C",
"(. c #F4DC5E",
"). c #F9DA57",
"_. c #E8CE51",
"`. c #FEE748",
"'. c #FDE35C",
"]. c #FCE658",
"[. c #F9EF51",
"{. c #D9C56C",
"}. c #EAD764",
"|. c #F6DC69",
" X c #FACB76",
".X c #FCE562",
"XX c #FFEB63",
"oX c #FDE96B",
"OX c #FFF264",
"+X c #FFF668",
"@X c #FDEA75",
"#X c #FFF277",
"$X c #E9E872",
"%X c #CCE043",
"&X c #1D6184",
"*X c #596C8E",
"=X c #6E788C",
"-X c #435080",
";X c #877B85",
":X c #00ACBD",
">X c #7297A6",
",X c #12DAEB",
"<X c #70DDDE",
"1X c #888788",
"2X c #969090",
"3X c #B8A993",
"4X c #8A96AA",
"5X c #B8AAA9",
"6X c #B8A7A3",
"7X c #AFAEB3",
"8X c #9D9F9F",
"9X c #C9B590",
"0X c #E8BA8B",
"qX c #C8B9B1",
"wX c #A3D9A0",
"eX c #D3C692",
"rX c #FEC996",
"tX c #F2D38D",
"yX c #FCEA8A",
"uX c #F9E69B",
"iX c #FFF498",
"pX c #F5EC8F",
"aX c #D2CAB3",
"sX c #FAD6B0",
"dX c #F9E9A9",
"fX c #FFF6A7",
"gX c #FAE6BA",
"hX c #FFF9B8",
"jX c #E9E7AA",
"kX c #CCE8AC",
"lX c #B0BACA",
"zX c #95AAC2",
"xX c #C8BEC3",
"cX c #BDC9CB",
"vX c #9EE7E5",
"bX c #C7C7CA",
"nX c #DCD6D6",
"mX c #DAD8DB",
"MX c #D1D2CC",
"NX c #F0D8C5",
"BX c #F7E8C9",
"VX c #FEF9C7",
"CX c #F8EBD7",
"ZX c #FEFAD8",
"AX c #E9E8CD",
"SX c #D7DAE2",
"DX c #E7E8EB",
"FX c #F3ECE6",
"GX c #FFFEEC",
"HX c #FBF8E7",
"JX c #F6F4F5",
"KX c #FFFEF4",
"LX c #FFFFFF",
"PX c #F7F6FA",
"IX c #EBF1F1",
"UX c #D1EBDD",
/* pixels */
"                                                                  . . . . . . .                                                                   ",
"                                                                  . . . . . . .                                                                   ",
"                                                                Q Q E Q Q Q 3 R R                                                                 ",
"                                                              E ~ =X=X=X*X*X! E E =                                                               ",
"                                                            # E *X4XzXzX>X>X*X-XE R #                                                             ",
"                                                          . # Q 4XzXlXcXlXzXzX*X&XR # .                                                           ",
"                                                        y y H >XzXbXMXSXcXlXzX>X>XY T y T                                                         ",
"                                                      W.5.5.C.Y.aXnXnXAXMXaXqX5X3XH.C.3.4.W.                                                      ",
"LXLXLXLXLXLXLXHXhX#X+XfXZXLXLXKXVXiX[.m.[.OXOXOX+X+XOX(._.W.{.}.pXuXjXjXjXtXtXtX{.}.Q.Q._.'.OX+X+XOXOXOX[.m.[.iXVXGXLXLXLXLXLXLXZXfX+X#XfXHXLXLXLX",
"LXLXLXLXLXLXLXHXfX#XXXfXHXLXLXKXVXiX[.m.`.OXOX'.OXOXXXXX].'.'..XoX@X@X@X@X@X$X@XoXoX(.].'.XXXXOXOXOXXXOX[.m.[.iXVXGXLXLXLXLXLXLXZXfX+X@XfXZXLXLXLX",
"LXLXLXLXLXLXPXZXfX@XoXdXZXLXLXGXVXyX].n.[.XXXXXXXXXX.XXXXXXX|.'.].).).].].].).]..X.X.XXX.XXXXXXXXXXXXX'.`.m.].yXhXHXLXLXLXLXLXKXVXuXoX#XfXZXLXLXLX",
"KXGXGXKXKXJXFXNXuX|.|.uXBXFXJXCXdXtX).^.^.(.(.|.(.(.(.}./././._._._.b.v.b.v._._._._././././.|.(.(.(.(.(.).b.^.tXdXCXFXJXJXJXJXFXBXuX|.|.uXVXGXKXKX",
"gXsXgXsXNXxXqXqXY.K.K.Y.9XqXqXqX9XY.K.i.I.K.K.K.K.K.K.K.K.K.J.S.i.Z.S.4.i.J.S.J.S.J.J.K.K.K.K.K.K.K.K.K.I.i.J.Y.9XqXqXxXxXxXxXqX3XY.K.I.T.rXsXgXBX",
"T. XT.T.R.*.*.%.&.#.#.#.*.*.*.*.#.#.] ] ] ] @.@.@.@.@.] @.@.@.@.] ] ] ] ] ] @.] @.@.@.@.@.@.@.@.@.@.] ] ] ] ] #.#.*.*.*.*.*.*.*.&.$.$.@.R.T.T.T. X",
"7.7.8.6.) ^ 9 u j M M k k r e t k A M M M M M M M M M M M M M N M M M M M M M M M M M M M M M M M M N M M N M M k t e r r r r t j i s ` X.6.8.7.7.",
"7.8.8.O.) e o . @ i p 0 6 6 6 6 6 u a p p p p p p p p p p p p p i p p p p p p p p p p i i p p p p p p p p p p u 6 9 6 6 6 6 6 6 + O ; A X.6.8.8.7.",
"7.7.8.6.) S o X ; u i u 7 7 7 7 0 u i i i i i i i i i i i i i i i i i i i i i i i i i i i i i i p i i i i i i i 0 7 7 7 7 7 7 7 @ $ - V X.6.8.8.7.",
"j.g.p.r.X.U & $ ; 4 x x l x l l l x z z z z z z z z z z z z z z z z z z z z z z z z z z z z z z z z z z z z z z z x l l l l l l ; * - U  .r.a.s.s.",
"j.j.f.r. .J * * = 3 4 4 4 3 3 3 3 3 3 3 3 3 3 3 4 4 4 4 3 4 4 4 3 3 3 3 3 3 4 3 3 4 4 4 3 4 4 4 3 3 3 3 3 3 3 3 3 3 3 3 3 3 3 2 = * * J  .r.h.j.j.",
"j.j.h.r. .J * * * 2 2 2 3 3 3 3 2 3 3 2 3 3 3 3 3 2 2 2 2 2 2 2 3 3 3 2 3 3 3 2 2 2 2 3 2 2 2 2 3 2 3 3 3 3 3 3 3 2 3 3 3 2 3 2 * * * J  .r.f.g.j.",
"j.j.f.r. .J * * = 5 4 3 3 3 3 3 3 3 3 3 3 3 3 3 3 3 3 3 4 2 3 3 3 3 3 3 3 3 3 3 3 3 3 4 3 3 3 3 3 3 3 3 3 3 3 3 3 3 3 3 3 3 3 3 * * * J  .r.h.j.j.",
"j.j.f.r. .J * * = 3 4 4 4 4 4 4 4 4 4 4 3 z 4 4 4 4 4 4 4 4 4 4 4 4 x 3 4 4 4 4 4 4 4 4 4 4 4 4 3 x x 3 3 x x 3 x 3 x 3 x 3 3 3 - * * U  .r.h.j.j.",
"j.j.h.r. .J * * - 4 4 4 4 4 4 4 4 4 4 4 4 4 4 4 4 4 4 4 4 4 4 4 x x x 4 4 4 4 4 4 4 4 4 4 4 4 4 x x x x x x x x x x x x 3 x x 3 - $ $ J  .r.d.j.j.",
"j.j.f.r. .J * * = 2 4 4 4 4 4 4 4 4 4 4 4 4 4 4 4 4 4 4 4 4 4 4 x 3 4 4 4 4 4 4 4 4 4 4 4 4 4 4 x 3 3 x x 3 x 3 x 3 3 x x x 3 3 = * * J  .r.h.j.j.",
"j.j.f.r. .J * * * 2 2 3 4 4 4 4 4 4 z 4 4 4 4 4 4 4 4 4 4 4 4 4 3 x 4 4 4 4 4 4 4 4 4 4 4 4 4 4 4 4 4 4 4 4 4 4 x 3 x 3 x 3 3 2 * * * J  .r.f.j.j.",
"j.j.f.r. .J * * * 2 3 3 3 4 4 4 4 4 4 4 4 4 4 4 4 4 4 4 4 4 4 4 3 x z x 4 4 4 4 4 4 4 4 4 4 4 4 4 4 4 4 4 4 4 4 x x 3 x 3 3 3 2 * * * J  .r.h.j.j.",
"j.j.h.r. .J = * - 4 x x x 4 3 3 4 4 4 4 4 4 4 4 4 4 4 4 4 4 4 4 x 3 x 3 4 x 4 4 4 4 4 4 4 4 4 4 4 4 4 4 4 x 4 4 x x 3 x x 3 x 3 - * = J  .r.h.j.j.",
"j.j.f.r. .P , - 3 c m c z z 3 3 3 3 4 3 4 3 4 3 4 3 4 4 3 4 4 3 3 x 4 4 3 4 3 3 3 4 4 4 4 4 4 3 3 4 4 3 4 4 3 3 3 3 3 x z c n c , - , L  .r.h.j.j.",
"j.j.l.t...P c d b n n n c 4 2 2 2 3 3 3 3 2 3 5 3 2 3 3 2 4 3 3 2 5 2 4 3 3 3 3 3 3 3 3 2 2 3 3 3 3 3 2 3 3 2 5 2 2 2 4 c n n B b , c _ ..t.f.j.j.",
"j.j.a.t..._ b g B K C n n x 2 2 2 2 2 3 2 3 2 4 2 3 3 2 2 2 3 4 2 2 4 2 3 2 4 2 3 2 2 2 3 5 3 2 2 3 2 3 3 2 4 2 2 2 2 z n n B V N g v _ ..t.f.j.j.",
"j.j.h.t...` B v B C C B n c 3 3 4 4 x x x 4 x x x 4 x x x 4 x x x x 4 x x x 4 4 4 4 4 4 4 4 4 4 4 x x x 4 x 4 4 4 2 3 c n B K K B b B ` ..t.h.j.j.",
"j.j.h.t...` N b N C B B n c x x z z z z z c z z c z c x z c z z z c c z z z c x c x c c z c c c z z c z c z z z z 4 x c n B B C B b N ` ..t.h.j.j.",
"j.j.f.t.} _ f a g N N b b f d d d d d d d d d d d d d d d d f f z d d d d d d d d d d d d d d d d d d d d d d d d d d f b b N N g a h _ } t.f.j.j.",
"j.j.f.t...L a > a b b b b g g g g g g g g g g b g b f b g g b g g g f b b f g b g b g g g g g g g g g b g g b g g f f b b b b b a > a L } t.f.j.j.",
"j.j.h.t...` B N C L L L K K L L L L L L L L L L K L L L K L L L L L L L K L L L L L L L L L L L L L K L L L L L L L L L L L L L Z N Z ` ..u.h.j.j.",
"j.j.h.u.e...| ] ] } } } } } } } } } } } } } } } } } } } } } } } } } } } } } } } } } } } } } } } } } } } } } } } } } } } { } { } | ] ] ..e.u.h.j.j.",
"g.j.g.f.u.t.e.e.w.w.w.w.w.w.w.w.w.w.w.w.w.w.w.w.w.w.w.w.w.w.w.w.w.w.w.w.w.w.w.w.w.w.w.w.w.w.w.w.w.w.w.w.w.w.w.w.w.w.w.w.w.w.w.w.w.q.w.w.u.d.g.j.j.",
"g.g.g.h.h.f.f.f.f.f.f.f.f.f.f.f.f.f.h.h.f.f.h.f.f.f.f.h.f.f.f.f.h.f.f.f.f.f.f.h.f.f.f.h.h.f.f.f.f.f.f.f.f.f.f.f.h.f.f.f.h.f.f.f.f.f.f.f.h.g.g.g.g.",
"g.g.g.g.g.g.g.g.g.g.g.g.g.g.g.g.g.g.g.g.h.g.g.g.g.g.j.g.g.g.g.a.g.g.g.g.g.g.g.g.g.g.g.g.g.g.g.g.g.g.g.g.j.g.g.g.g.g.g.g.g.h.j.j.g.g.g.g.g.g.j.g.g.",
"g.g.g.h.f.f.f.d.f.f.f.f.f.f.f.f.f.f.f.f.f.f.f.f.f.d.f.f.p.p.p.p.p.f.d.d.f.d.f.f.p.p.p.p.p.d.d.d.f.f.f.f.f.f.f.f.f.f.f.f.f.f.f.f.f.d.f.d.h.g.h.j.g.",
"g.a.a.d.u.w.e.e.q.q.e.e.e.e.w.w.e.e.w.w.w.w.w.q.e.e.e.y.6.O.O.O.O.+.+.+.e.e.q.+.O.O.O.O.O.+.+.+.q.q.q.q.w.e.w.e.e.e.e.e.e.w.e.e.+.e.e.w.u.d.a.a.a.",
"a.a.a.u.+.} | ] @.| | | { { | | { { { ] | | | } } { { o./ / / / / ` ` ` ` ` ` ` ) / / / / ( ` ` | | { { { { { | | } | | | | { ] | =.] } +.u.a.a.a.",
"j.g.h.t..._ N b Z C K K C C C C C K K K C C C C V C Z Z P Z C Z C P Z Z I K J I Z ` ` M K K C C Z C K K C C K C K K C C C C K K B b N ` +.t.U.j.j.",
"~.b.U.t...P a > a b b b g g g h i u u u u u u u 0 0 s W ! ;X1X2XF.#.@.' Y I H E ! ;X;X;XF.*.#.' U n j : > a a f f f g g g b b b a > a L ..t.U.U.~.",
").~._.U.A._ a a s N B b b c d : + o . . . . X o . o 9 ! 2X7XlXaXqXY.S.5.5.:.>.,.4X7XlXxXqXY.D.5.) S + . . # * - ; > d c b b N N s a s _ -.I.~.).^.",
").).).I.Z.` k s N Z Z B n c z @ o . . . . . . . . . 9 *.lXSXDXFXAXtXQ.v.x.:.>.,.wXSXDXFXBXuX/.i.5.T o . . O * * - , z c B B C C M s M =.Z.I.).).'.",
"XXXX(.Q.Z.=.M s M Z C B n c 4 3 2 2 , 5 2 2 2 + . . c 2XxXDXLXGXVXiX].M.x.x.<.E.vXIXLXKXZXfXXXb.5.2.F # # & 2 5 2 2 3 m n B C C N s k @.Z.I.(.XXXX",
"OXOX(.Q.Z.@.s s h B B A l < x Q ! ! 1X1X1X*.>X! >XE &XzXbXIXKXHXVXiXOXn.M.x.<.wXkXHXKXGXVXiX+X).}.3X1X! ! $._ U J n , , z n B B k s s ] Z.Q.].OXOX",
"[.[.`.W.S.' u ; > f d < o o n ! 8X7XbXbXbXcXlXlX>X:X:X<XUXAXVXhXiXyXOX[.%X%X!.eXjXVXZXVXfXyXOX@XpXaXcX7X6XG.-.) / S i & : c N n h > p ' 4.W.[.[.[.",
"m.n.n.i.4.I : $ * * * . . . W 1X7XmXIXIXIXIXIXvXvX,X,X<XwXjXiX#X#XoXXX].[./.[.$XpXiXiXiXyXOX].yXgXDXIXSXNX0XU.O.) ( p * = i c m > - > I 4.v.b.n.m.",
"OX].).Q.C.I % $ * , 2 o . . ~ 2XbXFXLXLXLXLXPXIXvX<X,X<XkXkX'.`.[.]..XXXOXOX'.XX.XOX'.].[.m.'.iXVXKXLXKXCXrXU.8.O./ n * * < x 3 - $ % I C.Q.(.[.'.",
"iXuXpX{.G.H X o y _ P S + X Q 2XbXFXKXLXLXKXKXIXvXvX<XvXkXuXyXoX.X.X].).).].].).`.b.n.n.c.b.).yXgXZXKXHXBXrXU.8.6.5.I D 1 1 2 & O . . I G.{.pXiXiX",
"VXVXgXeXF.5 . 7 / +.+.| N = R 4X6XNXNXCXCXCXBXBXDXMXcXcXkXVXgXdXuX X~.b.b.~.~.~.b.b.c.c.c.c.~. XuXNXBXBXrXrXU.8.5.5.:.;.D 1 O O . . . F F.eXgXVXVX",
"GXGXFXaX2X1 . q ) 6.+.-.P R R *X3X0X0XrXrX0XrX0X0XeX0XsXAXHXKXCXgX Xk.7.9.j.U.~.k.k.j.k.s.s.U.~.T.rXrX0XT.U.U.8.z.x.:.;.;.D O . . . . F 8XaXCXGXGX",
"LXLXJXMX4XQ o ^ O.0.h.R.;X-X&X-XR.R.g.k.k.U.U.a.7.7.U.rXCXGXLXHXsXrXg.7.7.a.g.g.g.g.g.g.g.g.g.j.g.U.k.U.U.g.g.h.i.x.<.;.;.D 1 O . . . ~ 8XMXJXLXLX",
"LXLXPXSXcX>X! A.u.g.U.T.6XzX;X;XY.l.9.9.9.7.9.9.7.7.0.tXBXHXKXHXgXrXj.7.7.j.k.k.k.k.k.U.k.U.k.j.0.9.9.9.9.0.k._.}.wXwXwX,.,.[ I I W ! 1XcXDXPXLXLX",
"LXLXPXIXSXcXqX9X X).).tXaXbXbXbXeX).c.c.c.c.c.c.c.c.b.@XdXVXZXVXdX X~.b.b.~.~.~.~.~.~.~.~.~.~.~.b.b.c.c.c.c.~.|.tXkXkXUXwXE.D.D.3X3X7XbXmXIXPXLXLX",
"LXLXLXPXIXIXFXBXuX|.'.uXBXFXDXCXgX@X^.c.n.`.`.].n.^.).@XyXfXfXiXyX@X].].^.).'.'.].]..X'..X.X].].).]..X`.).n.`.yXhXZXHXIXAXpX}.}.tXjXDXIXIXPXLXLXLX",
"LXLXLXLXLXLXPXZXdX@X.XdXZXKXLXGXhXpX[.n.`.[.'.].].'.OX].oXoXXXoXoXXXXX'.XXXX'.XXXXXXXXXXXXXX'.XX'..XOX].`.`.].yXVXHXKXKXZXuX.X@XfXZXKXLXLXLXLXLXLX",
"LXLXLXLXPXPXFXAXdX}.}.uXBXFXJXFXjXtX/.^.^././.}./.}././._.b.v.b.^././.}.}././.(./././.}./.}.(././.(././._.b.%XtXgXFXIXJXBXuX|.|.dXAXIXPXLXLXLXLXLX",
"LXLXLXIXDXmXMXaX3XL.Q.Y.aXMXMXaXeX{.D.i.I.P.L.L.L.L.L.P.i.i.i.i.i.L.L.L.L.L.L.L.L.L.L.L.L.L.L.L.L.L.L.P.P.i.L.{.9XxXMXMXaXeXI.Q.9XaXbXmXDXIXLXLXLX",
"LXLXPXDXMX7X2XF.V.V.N.F.2X2X8X2XF.V.N.1.1.N.N.N.B.N.N.1.1.1.2.2.1.N.N.B.N.N.N.N.N.N.N.N.N.N.N.N.N.N.N.N.1.2.1.V.F.2X8X2X2XV.B.B.V.F.2X6XbXDXPXLXLX",
"LXLXPXmX5X! 2 o y F F G W W W W W F F F F F F F F F F F F F F F F F F F F F F F F F F F F F F F F F F F F n F G W W W Q W G F n y o , ! 7XmXPXLXLX",
"LXKXFXMX2XW . . . # $ O . . . . . # $ * * # * $ $ $ $ * $ $ $ * $ * $ $ * $ $ $ $ $ * $ $ * $ $ $ $ $ $ * * $ # X X . . . O $ $ . . . G 8XMXFXKXLX",
"ZXZXAXaXG.F . . . : : @ + + o + + : : : : : : : : : : : : : : : : : : : : : : : : : : : : : : : : : : : : : : : + + + + + @ : < . . . F G.aXgXZXZX",
"fXfXuXeXF.I . . @ h v A k A t A A v v v b b v v v v v b v v v v M M v v v v N M v v v v v b v v v v v v v v v v k A y k v v N h @ . . I G.eXjXfXfX",
"#X#X|.Q.Z.I - & s B C C V C V C V C V K K K B C V K C C K V V K C C C C J C C C K V V K K B K B K K J C C C C C C C C C Z C C B s & & I C.{.(.#X+X",
"`.m.b.W.3.I & - h Z L L L L K K K K K K K K K K K K K K K K K K C L C C C C C C K K K K K K K K K K C C C C L C L C C L L L L V h - - I 3.v.^.m.`.",
"`.`.`.i.3.I - ; h B C L L L L C K K K K K K K K K K K K K K K K C C L L L C C C K K K K K K K K C C C L C C L C L C C C L L K C h ; - I 3.i.^.`.`.",
"[.].^.W.3.I - & h B C L C C C L K K K K K K K K K K K K K K K K L C C C C C L L K K K K K K K K L L C C L C L C C C L C C L K Z s & & I 3.W.(.[.[.",
"+XOX|.Q.C.I & & s C C L C C C C K C C C C C C C C C C C C C C C C C C C C C C C K K K C C C C C C C L C C C C C C L C C L C C Z h & - I C.Q.(.OXOX",
"OXOX(.Q.C.I % - s Z L C L C C C C K C K C C C K C C K C C K C C C L C C C C C C V K K C C C K C C C C C C C C C C C C C C L C V p & $ I C.W.(.OXOX",
"OXOX'.Q.B.H $ $ p B C L L C C C C K C K C K C K C K K K K C C K C C C C L C L C C C C C C L C C C C C C C C K C K C C K K K K B i # $ I C.I..X+X+X",
"+XOX.XQ.C.F # $ > B L L L C C C C C C C C C C C C C V K K C K B C C C C C C C C C C L C C C C C C C C C C K C C C C C C L L L B > # # n C.Q..X+X+X",
"OXOX'.Q.C.H $ $ p B L L C C Z _ C K C C C K C C C K K K C C K K C C C C C C C C C C C C C C C C C C L C L C C C C C C K C L L B i $ $ H C.L.'.OXOX",
"}.'./.L.C.@.I G B C Z Z Z Z Z C V V V V V V V V B V V V V V J B V V C V V V V V V V V V V V V C V V V V Z C Z Z C V V V V Z V K J n I @.S.P./.(.(.",
"L.L.D.L.D.S.Z.B.' P s s k M M k A t e e e e e e e e e e e e e e e e e e e e e e e e e e e e e e e e e t A k M M k t e r t j s L $.N.Z.D.D.D.i.I.P.",
"Y 1.N.S.Q._.Q.L.B.P p i s s j j 8 8 8 8 8 8 8 8 8 8 8 8 8 8 8 8 8 8 8 8 8 8 8 8 8 8 8 8 8 8 8 8 8 q 8 8 q j s j 9 8 8 8 6 7 p P A.K.Q.Q.Q.S.2.,.Y ",
"$ # I C.Q.(..XQ.Z.` s a s s k k t q q q q q q q q q q q q q q q q q q q q q q q q q q q q q q q q q q q t k k k k w w q 9 i s =.Z._..X'.Q.C.H # $ ",
"O O T C.W./.(./.K.B._ P _ @.$.=.&.&.%.%.%.%.%.%.%.%.%.%.%.%.%.%.%.%.%.%.%.%.%.%.%.%.%.%.%.%.%.%.%.%.%.&.&.=.' =.$.&.%.%.&.P _ #.J._.|.(.W.3.H O O ",
"( ( o.4.J.Q.Q.Q.K.J.Z.C.4.C.Z.H.3X9X5X5X5X5X5X5X5X5X5X5X5X5X5X5X5X5X5X5X5X5X5X5X5X5X5X5X5X5X5X5X5XqX5X3X3XR.A.D.H.6X5X6X3XH.A.S.i.W.Q.Q.J.4.X.( ( ",
"q.y.y.4.3.3.C.S.P.I.Q._.v.l.{.eXaXMXmXmXmXnXnXnXnXnXnXnXnXnXnXnXnXnXnXnXnXnXnXnXnXnXnXnXnXnXnXnXmXmXnXMXeXeXQ.{.eXaXnXnXaXeX{.v.i.S.C.3.4.4.q.y.y.",
"g.h.d.q.X.H U 1.P./.'.].`.`.@XuXBXFXPXPXPXJXJXJXJXJXJXJXJXJXJXJXJXJXJXJXJXJXJXJXJXJXJXJXJXJXJXJXPXPXPXFXBXpX.X|.gXZXJXHXZXdX@Xb.i.2.I U o.q.d.h.g.",
"k.k.h.y.( X O ,.P.(.+X[.`.`.#XfXZXKXLXPXLXLXLXLXLXLXLXLXLXLXLXLXLXLXLXLXLXLXLXLXLXLXLXLXLXLXLXLXLXLXLXKXVXiXXX#XhXGXLXLXHXhXyXb.x.Y # O ( y.h.k.k.",
"k.k.g.y.( O O Y P.(.OXOX`.`.+XfXZXLXLXLXLXLXLXLXLXLXLXLXLXLXLXLXLXLXLXLXLXLXLXLXLXLXLXLXLXLXLXLXLXLXLXKXVXiX+XyXhXKXLXLXHXfX#Xn.z.T O X ( y.h.k.k."
};
