/* XPM */
static char *_e30941357314610ff46dcfb7d8de1f51uHLM0K0ZaLLy8a8[] = {
/* columns rows colors chars-per-pixel */
"40 40 161 2 ",
"   c None",
".  c #000000",
"X  c #0D0B0C",
"o  c #1B0000",
"O  c #141819",
"+  c #1B1315",
"@  c #2D1406",
"#  c #120C23",
"$  c #201E21",
"%  c #102022",
"&  c #1D2027",
"*  c #232124",
"=  c #23272F",
"-  c #2C2428",
";  c #282A2D",
":  c #3C2027",
">  c #302A2E",
",  c #3E242B",
"<  c #29312F",
"1  c #262F32",
"2  c #2D2E31",
"3  c #322C31",
"4  c #2B3233",
"5  c #2E323E",
"6  c #3C353A",
"7  c #3E393E",
"8  c #453138",
"9  c #433B3E",
"0  c #37413C",
"q  c #3A3E42",
"w  c #373D48",
"e  c #393D48",
"r  c #443D42",
"t  c #334044",
"y  c #3C414D",
"u  c #3F4949",
"i  c #494246",
"p  c #48484A",
"a  c #4B454A",
"s  c #514548",
"d  c #414653",
"f  c #424D52",
"g  c #484E5B",
"h  c #554D53",
"j  c #5A4E53",
"k  c #4C535C",
"l  c #545056",
"z  c #555258",
"x  c #5D555C",
"c  c #5F585F",
"v  c #5A5354",
"b  c #685C5E",
"n  c #4D5363",
"m  c #515B60",
"M  c #5F5960",
"N  c #555C6B",
"B  c #635960",
"V  c #695E65",
"C  c #556165",
"Z  c #57656B",
"A  c #59656B",
"S  c #5D696F",
"D  c #586070",
"F  c #5F6A72",
"G  c #5F6779",
"H  c #67636A",
"J  c #626A6D",
"K  c #706469",
"L  c #686C74",
"P  c #736D74",
"I  c #7B6F76",
"U  c #687579",
"Y  c #6D7A7E",
"T  c #657375",
"R  c #76767C",
"E  c #7A747D",
"W  c #676F82",
"Q  c #677084",
"!  c #6A7384",
"~  c #6D7A82",
"^  c #6E778B",
"/  c #707F86",
"(  c #7E7D85",
")  c #70798D",
"_  c #747E92",
"`  c #837D86",
"'  c #718087",
"]  c #75838A",
"[  c #7A858B",
"{  c #7F888E",
"}  c #778095",
"|  c #788196",
" . c #7B8B91",
".. c #7C869B",
"X. c #7E889E",
"o. c #82898E",
"O. c #858C91",
"+. c #8B8B94",
"@. c #808D9C",
"#. c #8A8E9E",
"$. c #8B9297",
"%. c #83939B",
"&. c #8C929A",
"*. c #86989B",
"=. c #8C989D",
"-. c #93969F",
";. c #828BA3",
":. c #8C9DA5",
">. c #8791AA",
",. c #8E9FA8",
"<. c #9396A0",
"1. c #959BA5",
"2. c #9899A5",
"3. c #949FA9",
"4. c #8F9AB3",
"5. c #919CB5",
"6. c #9E9FB0",
"7. c #8FA0AA",
"8. c #93A1A6",
"9. c #93A3AA",
"0. c #98A4AE",
"q. c #96A8AF",
"w. c #95A7B1",
"e. c #96A9B2",
"r. c #9AABB5",
"t. c #96A3BB",
"y. c #98A4BF",
"u. c #9DAEBA",
"i. c #9DB1BA",
"p. c #A2ACBA",
"a. c #A1B4BE",
"s. c #9BA7C2",
"d. c #9EABC5",
"f. c #A2AFCB",
"g. c #A3B6C2",
"h. c #A6B9C6",
"j. c #A4B3CB",
"k. c #ACB7CB",
"l. c #A7B9C8",
"z. c #AABCCC",
"x. c #A7B4D0",
"c. c #ADBCD3",
"v. c #AFBCDA",
"b. c #B3BBD3",
"n. c #AEC0D2",
"m. c #B1C3D6",
"M. c #B4C5DC",
"N. c #B9C5DE",
"B. c #B7CADF",
"V. c #B6C5E3",
"C. c #B9C6E3",
"Z. c #BBCCE5",
"A. c #BECEEB",
"S. c #BFD0E9",
"D. c #C0CFED",
"F. c #C1D2EC",
"G. c #C6D5F5",
"H. c #C8D9F6",
"J. c #CBDBFB",
"K. c #CFE0FE",
"L. c #D1E2FF",
/* pixels */
"                . . . . . . . . .                                               ",
"              e y y y y y y y d y w                                             ",
"            # | t.d.s.y.s.s.s.f.t._ .                                           ",
"          . 5 5.G.J.J.H.G.G.J.J.A.4.& .                                         ",
"        < < ~ j.F.K.J.H.H.H.J.K.G.v.;.D g                                       ",
"      . k ' 8.i.h.n.m.m.m.m.n.n.c.V.C.s.W .                                     ",
"    . . S :.g.g.i.e.q.9.q.9.9.8.i.A.L.A.... .                                   ",
"    . . S :.h.m.M.j.*.T F U ] *.i.S.L.A.X.. .                                   ",
"    . . C *.g.Z.H.M._ . . O Z %.g.F.J.V.| . .                                   ",
"      . k [ u.F.L.C.! . . . u  .g.F.J.V.| . .                                   ",
"      . a P <.D.L.V.Q . . . 0 { g.S.J.C.| . .                                   ",
"    . . 8 b +.b.H.V...= . w J %.g.S.J.V.| .                                     ",
"    . . i K +.p.M.M.f.y.5.s.t.q.i.S.K.C.^ .                                     ",
"    . . a P +.3.u.n.D.J.J.J.Z.g.i.Z.J.V.) .                                     ",
"      . 7 c E o.=.g.M.G.J.J.D.l.u.m.G.M.y.! n                                   ",
"        - 3 z R +.2.6.p.k.v.n.g.a.g.z.M.A.v.;..                                 ",
"          . X x E ` I E O.8.e.e.w.8.9.z.H.J.j.D .                               ",
"            . r v b j v J Y ' ' ] O.#.u.M.Z.C.x.;.n                             ",
"              $ $ - * * ; 4 1 % q H ` -.q.g.Z.J.v.W .                           ",
"                . . . . . . . . . 8 B ( *.i.Z.H.D.f.W k                         ",
"                                  . o L :.g.z.n.M.A.v.;..                       ",
"                                  . . Z %.r.w.9.z.H.J.j.D .                     ",
"                                4 F /  .] [  .$.p.M.A.C.j.;.n                   ",
"                              . 4 [ e.,.Z 2 c ` <.w.h.A.J.v.Q .                 ",
"                              . 4 ~ 7.@.f . , V ` o.0.M.H.S.d.! n               ",
"                                  k Z m     o 6 H o.-.p.k.M.A.v.;..             ",
"                                    . .       . 6 V ` $.9.c.J.J.x.D .           ",
"                                                o , c [ 8.h.B.Z.V.v.>.L         ",
"                                                  . 4 [ e.a.i.g.A.J.V._ .       ",
"                                                  t Z  .e.u.8.9.c.A.f.! .       ",
"                                              . f ] 7.e.i.r.1.+.#.@.Q N         ",
"                                            . . J :.a.g.r.8.+.I s . .           ",
"                                          $ r c o.w.g.p.0.+.~ h @ .             ",
"                                        . * c E &.r.u.0.+.I j X .               ",
"                                        . $ h P +.3.9.+.E j - .                 ",
"                                            > r L +.&.` l - +                   ",
"                                              . r P E M X .                     ",
"                                                > h x i .                       ",
"                                                  * * *                         ",
"                                                  . . .                         "
};
