/* XPM */
static char *result[] = {
/* columns rows colors chars-per-pixel */
"80 85 49 1 ",
"  c #3C1D1D",
". c #431F1F",
"X c #452020",
"o c #4D2222",
"O c #542626",
"+ c #582727",
"@ c #5B2929",
"# c #652E2E",
"$ c #682F2F",
"% c #6C3131",
"& c #743535",
"* c #793737",
"= c #7C3A3A",
"- c #484747",
"; c #464B4B",
": c #4B4B4B",
"> c #544F4F",
", c #445353",
"< c #4C5353",
"1 c #535454",
"2 c #5A5555",
"3 c #545B5B",
"4 c #5C5C5C",
"5 c #604F4F",
"6 c #714F4F",
"7 c #7C4A4A",
"8 c #655252",
"9 c #6C5353",
"0 c #635858",
"q c #6D5A5A",
"w c #745252",
"e c #7A5151",
"r c #725A5A",
"t c #5A6060",
"y c #616161",
"u c #686767",
"i c #696969",
"p c #813E3E",
"a c #883F3F",
"s c #864242",
"d c #8A4343",
"f c #854D4D",
"g c #8B4B4B",
"h c #944646",
"j c #994646",
"k c #934848",
"l c #855050",
"z c #895050",
"x c None",
/* pixels */
"xxxxxxxxxxxxxxxxxxxxx114211111>>1>1211212112111>11>1>111444xxxxxxxxxxxxxxxxxxxxx",
"xxxxxxxxxxxxxxxxxxxxx44411>1>1<1<111322331411111><>11<>1411xxxxxxxxxxxxxxxxxxxxx",
"xxxxxxxxxxxxxxxxxxxx11:1>1<><>:1:<1<1<1331<11<<<<>:11>111112xxxxxxxxxxxxxxxxxxxx",
"xxxxxxxxxxxxxxy442121>:::<>1>111<<<<<<3<<3<<<<<<><>1><>1-::141140yxxxxxxxxxxxxxx",
"xxxxxxxxxxxxx4yiy4444::-111111112858208000822852113<11<::-<24440iyyxxxxxxxxxxxxx",
"xxxxxxxxxxxxy44y41111<<,<<33333067f7f777l77777fw833t333<<<<11134y44txxxxxxxxxxxx",
"xxxxxxxxxxxyut4111:--<131344tttrfjhkkjkggkhhhhjlqttt331111<-::1112yyyxxxxxxxxxxx",
"xxxxxxxxxx44u01111<::59w9999qqqrghhhkjkkjjhjjhhgeqqrrr9w998:::<111yi44xxxxxxxxxx",
"xxxxxxxxxy43421<<<,,1wggggff777fsdddhhhhjhjjhhssf7ffgfgggfw1,,3<<12424yxxxxxxxxx",
"xxxxxxxxtuu411>122418fhjhhdssapassssphhhkgkkhdsspsdhkhhhkkl8112111111uy4xxxxxxxx",
"xxxxxxxy4y421<<266eeegghhghaaaadsssssgggdhgggsssasdhhdhhjjzer7e92<<11yu44xxxxxxx",
"xxxxxxt044111<<8fggggdsssadsssssssssssassdsssssssssdsssghjgkgggf8<<>11444yxxxxxx",
"xxxxx4ui41<1118wgjjhhdsspppsspppsssspssssssssssssppsssssghhhhjjgr811>114iutxxxxx",
"xxxxxyti4111267gkhhhdssspppssppp=====ssdsssssdsspppsdssssddhhhhhg792<114iyyxxxxx",
"xxxxxy4u21<<07gjhhhdssspp*pssp**==*===ssssssssss=*ppsdsssssssghhhk70<<14uyyxxxxx",
"xxxxxy441:<<0ejjhgdspssp***pp=***&&&==spppsssss=***ppssssapssshhjkf0<<:1444xxxxx",
"xxxy4441>-,,4ekhdsssssss=**===********==*p7sss==***==ssssssssddghhe2,,::4440yxxx",
"xxxyiy11:::19fkhdssssssp=****&*&********&**ss=*******psssssssspdhgf91<:-<1tiyxxx",
"xx44y41:::59egkhdasssppp=****&&&&%&&&*****====*&*****=ppsssssspdgjg762>::14y44xx",
"y44411::<26gkkjggpsssp*****=*&$#$$$$$&****=*==*=******==pssssssdkkjhg92::-124t0t",
"uuy11:-:,4wkjhhggssdpp*&***&&%$#$#$#$&&&*&&*&****&***&&=sssssssdghjjkw2<;-:140uu",
"tu041:-;,1wgjhdssssss=****&&%%$#$$##$$%&%&&*=&%%%&&****=ssdsssssshhjgw3,;--14tyu",
"yt411>-:,2wghhssassdpp****&%##%#$$$$$$$$$$&**%$##$&&=**=psdssssssshhge2,,:>14444",
"yy411::18wfhhdsssssspp*&&&%%#$##$$$$#####$$&&%$###$&&**==pssssssppaggf98>::1144y",
"y44::,187gkjhssssssds==&%%%##%#%$$$$$#+###%%%%$$$$$$&&*===psssssssssdgg781<::4ty",
"y41:-<19fkjkhgsssssssp*&%$#$$$%#$$$###++##$##$$$$$$#$&**&==pdsssssssshhg91,-:30y",
"yt2:-,39ghjgdsssdssp==*&%##%$$$######@@@###@##$$$$##$&****=sdsssssssshjgr1,-:1ty",
"y03:-<19fhhdssssssp=**=&%%###%###++@@@+@@@@@@#$$$$##$&****pssdssssssdhhg91<-:20y",
"yy1::<19fjhapsssss==&*&&%#$$$$$#@@+@@@@@@@+++##$$$$#%&&&**=psassssssshhg93,-:10t",
"y42:-,39fkhsssss===*&&&%%%#$#%##@+@@@@@@@@@@@@###$$$$$%&&*==7psssssssds791,-:4tu",
"y42:-,19ghhdsssp=****%$##$$$%$$##@@@@@@@@@@@@@@@#$$$$$$%&***=psssssssas781<-:1yy",
"yy3:-<19fgdsssss==&=&&$##$$$####@+++++@@+++@@+@@#$$$$#$%&****=pssssssas781<--44y",
"yt1:-,19fddspaap=&&*=%$##$#%##@@@@+OO+@@OOO+@@@@#$$$$##%&=*&====psssssa751<-:24y",
"y03--<187sasaaap=*=**%$#%#%###@+@@+ooO@+OoO+@@@##$$$%#$%&*=**&*=ssssssa791<-:14y",
"y421<<187passppp==*=*%$$#%##@@@@@@+ooO+OOoOO++@@##%$$#%%&=*****=psdssas791<:>34y",
"u021<1197passp&p=&*==%$$####@@@@@@+ooOooooooOO@@#%$$$#$%&=***&*=ssssssd781<1144y",
"tt411<187aaspp&&&**=&%%#%$#@@@@@@@+ooooXXooXo+@@###$$$#%&*&****=pssssap7811114yy",
"t0411<197asspp&&***==%###$#@@@@++oOOoXXX..Xoo+@@@@#$$$$%%%&****=psdssap783<114t0",
"y4411<187sadpp*&****=%%#$$@@@@@+oooooX    XXO+@@@@##$$###$&****=sssssaa791<<144y",
"0441>1187adsppp*****&&%%%###@@@+OoXoX     XoO+@@@@@$%$%##$%&***=psssahs791<1124t",
"tt311<197aasppp&=******&%%###@@+OoXX      .oO+@@@@##%%%##%%*=*&=pssssggg91<1144y",
"yy411<187aaspp*&*******&%$#%##@+OoX       .Xo++@@@@####%##%*=*==psssahhg91<1144t",
"y0411<187aaspp&****=&&&%%##%$@@+OoX        XooO+@@@###%#$$%*===sssssshhg91<<140u",
"y4411<197adssp******&&%$$$$%##@@OoX.        .Xo++@@@@####$%*==ssssssshhg93<>14ty",
"y441<<197psss=*****=*%##$$####@+Ooo.         .oo+@@+@##%##%&=pssssssghhf91<1144t",
"t4211<187sdspp*******&%#$$##@@@+OooooX       .oO+@@@@####%&&=pssssshhhhf91<<1440",
"y0411<197sdssp*****=&&##$##@@@@OOooooX      .XoO+@@+@##$$%%*==sdssdhhhhf93<114yy",
"yt411<18ssasp=*&*=&&&%#%$%@@@@@@ooooX.  .    Xo++@@@@#%$#$%*=sssssgkhjhf91<1144y",
"y0411<157aassp*&**&%%%$$$##@O@@OOoXX         XoO+@@+@##$#%%*=ssssshhkhjf91<<144t",
"yt411<397sadap****%%#$$$$$#@@@@@OoX         .XoO+@@@@##$#$%&==ssssdhjhkf93<11440",
"t4411<187pasa**&**%%##$$$##@@@@+Oo.        XXoo++@@+@#$$$$%*===spsshjjkf91<1144y",
"y4411<187pdspp**=*&%$#$$$$#@@@@+OoX       Xooooo+@@+@##$#$%==&==paghkjkf91<<144y",
"y441:119ssdssp=*=*%$##$$$$@@@@@@OooX.     XoOooO+@@@##$$$$&&&**=psghkkhf93<114yy",
"u0411<19fhhssppp=*&%##$$$$#@@@@@@+ooX     XooooO+@@##$$$#$%*=&&=pdghkhhf91<<1444",
"tt411<19fkhssssp=*&%$$$$$$#@@@@@@++Oo.    XoOooO+@@$$$$$#$%****=psdhkjkf93<1144y",
"t041<<39fjhdssss=*&%%$$$$$##@@@@+++ooXX..XXoooOO+@#$$$$$$$&&***=psdghjjf91<1124y",
"t041<<39fkhasssp=***&%$$$$$###@+OooOoooooooooO+@@+##$$%##$%&=**=psssdhhf91<<144y",
"u4211<19fkhdsssp=****%$$$$$%$@@+OoooooOoOoooO+@@@+#$$$#$$$&&***=ssssaghf91<114ty",
"t4311<19fjgssssp=**=*%%#$$$$##@++OoooOooooOO++@@+@@#$$#$%&&****=psssshhg91<114ty",
"t0411<19gkhpsssp=****%$##$%$$@@@@@+oooooooO+@@@++@##$$#%&******=psssshhg93<1120t",
"u0411<19fkhdsssp=***&&%%$$$$##@@@@+OooOooO+@@@@@@@##$%%&*=*****=psssshhf91<1124t",
"t4411<39fhhkgdsp=*****&%%$$$$@++@@@++ooo+++@@+@@####%%&&******&=ssssshhg91<1140u",
"t4411<19fhjkhgdp=&*****&%##$##@@@@@@+OoO++@@@@+@#$$#%&*********=psssshhg93<1144y",
"y4411<19fhhjhhsp=****==*%$$$###@@@@@@+O++#@@@@##$$$#$&*=*****==passssdg791<114t4",
"y4311<19fhhjkddp=&***=*&%$$$$####@@@@@@@@@@@@##$$$##%%==***&==sssssssdds91<<144y",
"t0411<19fkkjhgsp==*****&%$#$$%$#@@+@@@@@@@@@@#$%$$$$%&=&****=psssssssss78111144t",
"u0411<39fjjhhgappp=***=&%##$#$$#@@@@@@@@@#@@@#$$$$%&&&&=*===sssssssssps7511<144u",
"ty41<<19ghhhgdasss==&=&&%#$$%%##@@@@@++@$##@@@$$#$%&****&==ssssssssssap791<11440",
"44311<19gkhhgdsssss===*&%%$$#%###@@@@@@#$$#@##$$#%&*=**&*==sgdsssssssass81<11144",
"421:-<39fhhgdsssdsss===&*&%$##%$##@@@@##$$####$$##%&*=**&&=ssssssssssss793<::144",
"11>--<19fhhspssssssss==*=*&$$##$%##@@#%$$$$$#$$##%%*=****==ssssssssssas781<:-132",
"32<:-,19ghhdpsssssdss==&&=&&%%$$#%#@###%$$$$$$#%%%&****===sssssssssadag791<--:11",
"221--<19fhhssssssssss==&=&**&%###%###%#$$$$$$##%&&=****=pssssssdssssshhf91,-:112",
"11<:-<39fhhssssssssss===*=***&%$#%%#%#%#$$$$$#%%&==****=ssssssssssssshkf91<:-<12",
"211--,19fhhsssssssssss====*==&&%%##$##%%$$$#$%&&****&&==ssssssssssssshjf91,--111",
"411--<39ghhssssssssssssp=&&****&%##$#%###$##$&******=*&=psdsssssssssshkf93<--121",
"11<--<<9fhhdssssssdssdss=****=*&&%%%%%$#$$$%&&********==ssssssssssssghjf91,--114",
"411:-<39fhjggdssssssssss=*&*****&&&&&%####%&&******&*=psssssssssssddhhkf93<:-121",
"111--<19fjjjhdssssssssss=***==****=*&&%##%&&=****=*==psdsssssssssadhhjjf91,--113",
"21>-:,19fjkkhgspsssssssp=**&*===****&&&%%%&****=====ppsssssssssssghhhjkf91<--112",
"111:-,19fkjjhdspsssssdsp=&&**ppp=**&*&&&&&*****=psssssssssssssssdhkkkkkf93<--:11",
"41>::<<9fkjkghsasdssssss==**=pss=========******=sssssssssssssssdkkkkkjkf91<::124",
"11::-<19lkjkhhgghdgssssssp=ppssss==s=sp==**&*=ppssddsssssssssgghkkkkkhjl9<,-:111",
"411:-,39fhhkhkkkhhgsssssssssssssssssssss=***=psssssssssssssaddhhkkkkkjjf91<-->14",
"211-;,19fjjkkjkkkkgspsssssddssssdsssssss=*&*=psssssssssssssssghhkkkkhhjf93,-:111"
};
