/* XPM */
static char *d3ea36274f2f4993b2f11c1a54e8a164NCONPxoFAi5zEeke[] = {
/* columns rows colors chars-per-pixel */
"86 86 175 2 ",
"   c None",
".  c #00023F",
"X  c #00193F",
"o  c #00573F",
"O  c #00593F",
"+  c #000040",
"@  c #052F40",
"#  c #0E3940",
"$  c #123E40",
"%  c #154241",
"&  c #184641",
"*  c #1C4C41",
"=  c #1C4F48",
"-  c #015540",
";  c #005A41",
":  c #0B5D43",
">  c #1E5242",
",  c #1D5C42",
"<  c #225541",
"1  c #285742",
"2  c #265C42",
"3  c #295E42",
"4  c #235B4B",
"5  c #335D43",
"6  c #3A5E44",
"7  c #006042",
"8  c #266045",
"9  c #2A6444",
"0  c #2E6A44",
"q  c #276048",
"w  c #296548",
"e  c #2D6B4A",
"r  c #306E45",
"t  c #337345",
"y  c #367B46",
"u  c #397D46",
"i  c #327349",
"p  c #367A49",
"a  c #387F4A",
"s  c #4D5F44",
"d  c #416247",
"f  c #5A6045",
"g  c #656347",
"h  c #6B6246",
"j  c #776347",
"k  c #8F563D",
"l  c #96573D",
"z  c #98593E",
"x  c #95583D",
"c  c #B15F3F",
"v  c #975940",
"b  c #9A5C42",
"n  c #8F674A",
"m  c #80684A",
"M  c #9E6749",
"N  c #9F6A4D",
"B  c #906B4D",
"V  c #AB6649",
"C  c #A46C4E",
"Z  c #AC6A4C",
"A  c #AA6345",
"S  c #B26343",
"D  c #B86846",
"F  c #B66B4C",
"G  c #B96D4E",
"H  c #B66E50",
"J  c #B96F50",
"K  c #AC7158",
"L  c #AA7353",
"P  c #B77254",
"I  c #BB7152",
"U  c #B0775D",
"Y  c #BC775A",
"T  c #BD7A5C",
"R  c #BD7E62",
"E  c #B57D63",
"W  c #C1714F",
"Q  c #C47555",
"!  c #C77857",
"~  c #CA7957",
"^  c #C07758",
"/  c #C27B5D",
"(  c #C97C5C",
")  c #CD7452",
"_  c #D27E5A",
"`  c #C37E61",
"'  c #3B8346",
"]  c #3F8947",
"[  c #3B8448",
"{  c #3E8A48",
"}  c #408746",
"|  c #428C46",
" . c #418D48",
".. c #459246",
"X. c #499747",
"o. c #4B9B47",
"O. c #449349",
"+. c #479849",
"@. c #499A49",
"#. c #4A9C49",
"$. c #499C49",
"%. c #4D9E48",
"&. c #4A9C49",
"*. c #4FA34A",
"=. c #4FA249",
"-. c #4EA34A",
";. c #50A649",
":. c #52AA4B",
">. c #55AE4A",
",. c #55AE4A",
"<. c #52AA4A",
"1. c #57B04A",
"2. c #57B24A",
"3. c #57B24B",
"4. c #58B34A",
"5. c #59B54B",
"6. c #59B64E",
"7. c #59B54B",
"8. c #5BB94C",
"9. c #5CBB4D",
"0. c #5EBF4D",
"q. c #5DBD4D",
"w. c #5CBC4C",
"e. c #4DA250",
"r. c #52AC50",
"t. c #59B650",
"y. c #5FC04D",
"u. c #5FC14D",
"i. c #5FC14C",
"p. c #60C24D",
"a. c #62C54D",
"s. c #63C74D",
"d. c #62C54E",
"f. c #62C54D",
"g. c #65CB4E",
"h. c #65CC4E",
"j. c #65CB4E",
"k. c #68CF4E",
"l. c #68D14E",
"z. c #BE8164",
"x. c #C28266",
"c. c #CB8262",
"v. c #C28569",
"b. c #CA8668",
"n. c #C6896D",
"m. c #CD8B6D",
"M. c #D28C6D",
"N. c #D88E6D",
"B. c #D6916F",
"V. c #C78D70",
"C. c #CB8E71",
"Z. c #D28F71",
"A. c #CD9274",
"S. c #CF977A",
"D. c #CF987B",
"F. c #D49374",
"G. c #D99574",
"H. c #D59779",
"J. c #D39A7C",
"K. c #DA9C7D",
"L. c #E09B7B",
"P. c #D49E80",
"I. c #DD9F80",
"U. c #D7A183",
"Y. c #DBA384",
"T. c #DCA788",
"R. c #DEAA8A",
"E. c #E0A585",
"W. c #E2A887",
"Q. c #E2AB8B",
"!. c #E5B08F",
"~. c #E5B393",
"^. c #E8B695",
"/. c #E8B897",
"(. c #EBBB9A",
/* pixels */
"                      3 2 3 > * * * * * * * * * * * * * o * 1 > *                                                                                                           ",
"                    % $ > t  .-.%.%.o.o.o.o.o.o.o.o.o.o.o.=.%.=.X.}                                                                                                         ",
"                0 0 i 8 0 ..7.g.g.s.s.a.s.s.s.a.s.s.g.g.s.s.h.h.q.e.e *           2 2 0 e 0 i r r e e 2 3           0 0 i i r r e r i i r 0                                 ",
"            @ 0 X.5.a.p.8.>.;.#.+.#.#.#.#.#.#.#.#.#.#.X.$.o.$.$.X.O.} t w < < 2 2 % # 0 #.7.p.a.y.-.u % $ < 5 * * u ;.w.d.p.0.0.0.p.a.p.4.X.0 o 1 5                         ",
"          u } r.7.9.u.u.8.:.O.[ u [ [ [ [ [ [ [ [ [ ' ' [ [ [ [ [ { | { [ p e w 0 t ] o.<.5.q.i.8.4.-.| u 0 1 = > i +.<.7.3.>.>.>.>.4.4.;.} w = 4 2 < *                     ",
"      & i ;.p.p.:.{ [ [ } { { { } } ] ] { ] { ] { { { { { { { ] { { { ] } { t 2 9 o.i.s.>.{ ' ' ] -.u.a.<.u o < 2 2 3 3 2 2 2 2 2 2 2 2 2 3 3 3 3 3 9 w 3 2                 ",
"& 9 | <.q.6.<.#.] 0 8 0 i i i i r r r r 0 0 9 3 2 2 8 3 2 3 3 3 8 2 3 9 0 r 9 2 9 ' -.-.+.{ [ [ ] { } ..o.>.5.4.>.>.>.1.1.1.1.1.>.4.1.1.1.4.4.4.1.1.8.y.3.O.0 .             ",
"> e +.8.y.<.] 0 w 2 < < < < < < 1 * < 1 o 3 t ' ' } ' ' ' ' ' ' ' ' ' t 9 > * < 8 r y [ { { { ' u 0 % > } 4.a.g.h.g.a.p.8.0.0.y.p.0.u.0.u.u.y.y.p.y.p.a.0.t.e.u t           ",
"< 2 t {  .u 9 2 q w 2             < 2 & & a <.i.h.s.s.i.a.a.a.a.s.s.s.1.' < o < 3 t ' | | | d t 9 < o 2 0 a O.5.s.p.:.{ [ [ { { | | ] ..| ..| |  . .} } O.:.a.a.;.e %       ",
"2 2 9 i i e w 2 2             < ] -.6.1.<.<.:.:.:.<.:.<.<.<.<.;.4.s.k.s.w.<.} d 1 3 0 t r r u u u u d ' ..;.8.i.g.s.u.1.3.9.3.#.y < O 9 3 3 3 3 w 0 r 5 i O.:.7.%.{ i 0 2 < ",
"9 2 2 < < 2 2 2           0 0  .r.q.h.h.s.q.-.[ p ' [ [ ' [ ' a { ;.w.s.g.p.<.u 1 & < < * 1 3 y ' { [ O.;.q.s.i.q.0.y.u.a.s.u.<.| t t t t y t r 3 1 1 * 2 9 t d [ ] u t w w ",
"e 8 2                 . * } 4.p.5.=.{ { ..{ { [ { { { { { { | } { ....X.+...' 0 * * 1 o * 1 o < 9 t [ { { O.............O. ...;.5.f.f.i.f.a.f.,.d o & o 2 9 0 r w e 0 w 8 w ",
"2                   y ..:.t.6.>.-.{ ' [ [ { { } [ a t t t t p t t t 0 0 r r r t d ..o.-.;.=...r o < 0 t r 6 t y [ { | ..[ a [ O.<.2.1.,.7.s.h.s.f.=.} r & o *           2 2 ",
"                % > O.6.a.9.+.a ' { [ [ { ' { { t 0 5 o < 2 < 2 2 2 2 < > 2 0 t ..,.i.j.l.j.w.X.d 1 1 1 1 * 3 t ' { { d [ { { { [ [ ' a ..<.y.g.l.l.8.X.9 2                 ",
"                * 2 p O.X.+.{ { { | { p 0 9 9 w 9 3 1 3 8 w w w 8 8 2 2 2 3 3 9 0 u | -.w.j.j.s.5.%.t o o 1 3 3 9 0 0 0 r ' |  .{ { { { }  ...;.q.j.j.s.5.X.0 @ % 2 3       ",
"                < < e p [ { { { ' u t 9 2 < < 2 3 9 3 2 2 2 2 2 2 2 9 8 7 ; - > 2 0 a { o.>.w.j.k.p.;.} y 0 < < < < o < 3 t p a y y y p p a '  .;.4.p.j.h.u.>.O.[ e < <     ",
"                < 2 i [ { { { { t 9 2 < 2 2 2 2 2 8 3 2           2 3 9 5 5 5 1 2 t ' | [ [ +.5.a.k.k.a.<.u o * 5 1 2 2 2 2 2 2 2 < < < 9 t ] { a [ -.5.s.j.j.i.o.r * < 8 3 ",
"            * 9 r a { { { [ t 9 9 9 q e e 2 2                           N C B f : ; 0 t a { { ..%.4.j.j.>.u 1 * q 3 w w w 8 q 3 2 3 2 2 < 0 0 0 9 9 a X.-.-.-.o...[ t 0 8 2 ",
"          9 0 a { O.{ ' ' i 9 2 < 2 2 2 2 2                             ) Q K g O o O 5 0 a ' t d X.,.4.-.t > > 3 3 3 2 2 2 2 2 2 8 8 8 9 2 2 < 1 < 8 0 t a a ] { O.' i 3 < ",
"      < 9 p [ { { { ' r 2 2 9 2 2                                       I G L g ; ; , 3 < < 0 a O...| } a r < <                 3 w w 2 3 2 3 2 2 2 2 < 3 i '  .{ { ' r 2 2 ",
"      < e [ { { u i 0 e 8 < 2                                           J I ^ C n h 3 O - 2 3 9 t a [ [ a 0 <                                 2 2 2 8 2 2 9 0 t [ { [ t 3 < ",
"    2 1 9 p [ [ i 2 < < 3                                               J J ~ ) G N j s 6 3 , > 2 0 [ { [ 0 2                                   2 2 w 8 2 < < 8 t [ ' r 3 2 ",
"2 2 2 2 3 8 w w e w 2                                                   J J ! J G J G C m d ; - 2 0 [ { [ e >                                   2 8 e 2 3 2 3 8 9 9 9 w 8 8 ",
"w e w e 2 2 <                                                           G J ( ` T ! ! G M   ; - 2 r [ { { [ t 0 9                                   2 2 8 3 2               ",
"2 2 2 2 2                                                               G G c.v.v.b.( I       - 2 i u [ { { [ [ e <                                   2 2 2                 ",
"                                                                        F I c.x.v.C.Z.x.      - 2 9 8 9 a [ { a 0 <                                                         ",
"                                                                        G I c.x.v.F.H.n.      O 8 w 2 2 t ' { a e <                                                         ",
"                                                                        G G c.x.v.n.n.v.      O 2 2 < 3 i [ ' a w 2                                                         ",
"                                                                    J G G G ( m.n.v.              2 2 8 e 0 0 e e 2                                                         ",
"                                                                  I W _ W F ^ m.z.n.                2 8 w 2 < 2 2                                                           ",
"                                                                  I G ! J P ( m.v.n.                2 9 w w 2                                                               ",
"                                                                  S F M.K.Y.Y.K.x.z.                3 8 2 2                                                                 ",
"                                                                  S F G.!.(.^.L.z.R                 4 3                                                                     ",
"                                                                  S F B.Q.^.~.Y.z.R                                                                                         ",
"                                                                  c F F.Q.(.^.L.z.z.                                                                                        ",
"                                                                  S G N.W.~.Q.K.z.z.                                                                                        ",
"                                                                  F G c.b.C.A.F.z.z.                                                                                        ",
"                                                                  G I ! I P ` Z.n.v.                                                                                        ",
"                                                                  J G ~ Q Y x.M.v.n.                                                                                        ",
"                                                                  S G M.Y.R.Y.C.R R x.v.                                                                                    ",
"                                                                  c F G.!.(.^.R.J.K.K.x.                                                                                    ",
"                                                                  S F B.R./.(.(.~.W.H.z.                                                                                    ",
"                                                                  c F B.Q./.(.(.^.Q.H.z.                                                                                    ",
"                                                                  c F B.!.(.(.(.~.Q.H.z.                                                                                    ",
"                                                                  S F N.W.^.(.(.~.Q.H.R                                                                                     ",
"                                                                  S F G.W.^.(.(.~.Q.K.R                                                                                     ",
"                                                                  S F B.W./.(.(.~.W.F.z.R                                                                                   ",
"                                                                  c F B.W.(.(.(.~.Y.C.z.v.v.v.                                                                              ",
"                                                                  D G b.F.P.!.(./.R.C.x.Z.F.v.                                                                              ",
"                                                                  G J ~ Y R S.T.!.U.V.x.Z.C.v.                                                                              ",
"                                                                  J J ~ I P P Y T R v.v.Z.m.v.                                                                              ",
"                                                                  I J ! J J / n.C.V.x.` Z.n.v.                                                                              ",
"                                                                  G J Q D J A.!./.R.A.v.M.m.x.                                                                              ",
"                                                                  I G Q D H C.Q././.~.T.Y.C.R                                                                               ",
"                                                                  G I ! J Y S.R.(.(.(.~.W.A.R                                                                               ",
"                                                                  G G ( ` z.P.R.(.(.(.~.W.F.R                                                                               ",
"                                                                  G J ( R v.P.~.(.(.(.~.R.A.R                                                                               ",
"                                                                  G G ( ` v.S.U.~././.~.W.C.R x.                                                                            ",
"                                                                  G G c.x.v.v.z.A.U.^.^.U.n.R v.v.v.                                                                        ",
"                                                                  G J ~ ^ T R z.z.A.J.J.S.n.n.G.C.v.                                                                        ",
"                                                                  J J Q I G P R z.z.R T R ` v.Z.v.v.                                                                        ",
"                                                                  J J ! Q G G G F F F F F D Y b.v.n.                                                                        ",
"                                                                  I I _ I H x.m.J.J.S.H.F.S.A.C.x.` x.                                                                      ",
"                                                                  P G G D P m.R./.(./.(.(./.!.P.V.C.G.v.v.                                                                  ",
"                                                                        F J c.n.H.R.~./././././.~.T.I.x.R                                                                   ",
"                                                                        G I ( T z.P.~.(.(././.(./.~.Y.z.R                                                                   ",
"                                                                        F I ( R V.U.!./././././.^.Q.I.z.R                                                                   ",
"                                                                        F G ( ` V.U././.R.S.S.S.J.H.H.v.v.                                                                  ",
"                                                                        G I ( ^ z.D.R.R.S.z.T Y T ` Z.v.v.                                                                  ",
"                                                                        J I Q I P R v.v.n.n.x.P F Q m.n.n.                                                                  ",
"                                                                        J ~ _ I J G F J F P R A.P.P.H.x.x.                                                                  ",
"                                                                        J J G F I T / x.T T A.R.(.^.E.z.R                                                                   ",
"                                                                              D ^ K.R./.~.~.^.(.(.~.L.v.R                                                                   ",
"                                                                              S ! F.P.R./.(./.Q.P.J.H.x.x.                                                                  ",
"                                                                            x Z Y ^ T V.U.~.R.S.x.x.Z.v.v.                                                                  ",
"                                                                            x V Q c.z.n.V.V.V.v.R x.m.v.E                                                                   ",
"                                                                            x Z Y x.v.v.z.z.n.S.P.P.H.z.U                                                                   ",
"                                                                            x F Q ( x.v.z.x.A.R.^.!.I.z.K                                                                   ",
"                                                                            v Z Q Q I T R v.n.S.D.H.N.Y C                                                                   ",
"                                                                            v F Q Q G J Y R x.x.` P F A z                                                                   ",
"                                                                            b F Y Q G G P J I Q I Z                                                                         ",
"                                                                                b F J ( _ ! G A z                                                                           ",
"                                                                                  x Z F G F V                                                                               ",
"                                                                                                                                                                            ",
"                                                                                                                                                                            ",
"                                                                                                                                                                            "
};
