
/* XPM */
static char *d61d2ffc2cba40c583f95375a1866676ppcQG0lfXAUkj9iC[] = {
/* columns rows colors chars-per-pixel */
"76 86 235 2 ",
"   c None",
".  c #000000",
"X  c #0B0200",
"o  c #060A04",
"O  c #120B02",
"+  c #1A0503",
"@  c #1B140C",
"#  c #1B1103",
"$  c #1A1B13",
"%  c #001E19",
"&  c #240100",
"*  c #290804",
"=  c #3D0000",
"-  c #370601",
";  c #251A0B",
":  c #2C1E0D",
">  c #281508",
",  c #271C13",
"<  c #341D13",
"1  c #3C1707",
"2  c #18281D",
"3  c #2E200E",
"4  c #33210E",
"5  c #2E2113",
"6  c #28281B",
"7  c #332415",
"8  c #33261B",
"9  c #35291B",
"0  c #3B2B1C",
"q  c #3B2418",
"w  c #3B301D",
"e  c #143227",
"r  c #3D2E21",
"t  c #342D21",
"y  c #283728",
"u  c #3E3324",
"i  c #373727",
"p  c #313629",
"a  c #440200",
"s  c #560000",
"d  c #481907",
"f  c #551705",
"g  c #680000",
"h  c #750000",
"j  c #472304",
"k  c #572A08",
"l  c #432919",
"z  c #5D2E12",
"x  c #582F18",
"c  c #59321A",
"v  c #4A3217",
"b  c #652C18",
"n  c #623114",
"m  c #67341A",
"M  c #742E16",
"N  c #432E21",
"B  c #433323",
"V  c #4A3525",
"C  c #443B2A",
"Z  c #4C3C2B",
"A  c #4A3927",
"S  c #523D2A",
"D  c #563824",
"F  c #773C23",
"G  c #643A23",
"H  c #354B39",
"J  c #1B4939",
"K  c #55412D",
"L  c #5B442E",
"P  c #474735",
"I  c #5D4530",
"U  c #594935",
"Y  c #54533D",
"T  c #66462D",
"R  c #7B4229",
"E  c #634B34",
"W  c #6A4E35",
"Q  c #634934",
"!  c #784E34",
"~  c #6C533B",
"^  c #68533B",
"/  c #73553C",
"(  c #75593E",
")  c #795A3E",
"_  c #745338",
"`  c #3A5844",
"'  c #346851",
"]  c #475B45",
"[  c #675C43",
"{  c #7B5D41",
"}  c #735D42",
"|  c #496E54",
" . c #68654B",
".. c #796449",
"X. c #64795D",
"o. c #767255",
"O. c #6D7D60",
"+. c #8E2E18",
"@. c #820000",
"#. c #89462C",
"$. c #91482D",
"%. c #8E4831",
"&. c #944C33",
"*. c #994E34",
"=. c #9C5438",
"-. c #83583A",
";. c #AB5A3D",
":. c #A55439",
">. c #AD5237",
",. c #AE5C40",
"<. c #B35E42",
"1. c #B95E42",
"2. c #846345",
"3. c #8D6A4A",
"4. c #886747",
"5. c #936D4C",
"6. c #976C4A",
"7. c #96714E",
"8. c #9A724E",
"9. c #897858",
"0. c #9C7552",
"q. c #9E7955",
"w. c #977453",
"e. c #836E50",
"r. c #B66143",
"t. c #BB6246",
"y. c #B36C4D",
"u. c #A07652",
"i. c #A37A56",
"p. c #A67D59",
"a. c #A97E59",
"s. c #A97652",
"d. c #B87D58",
"f. c #C26648",
"g. c #C46749",
"h. c #3F8E70",
"j. c #568E6F",
"k. c #6E8F6E",
"l. c #87805F",
"z. c #94815E",
"x. c #AC825B",
"c. c #A6835B",
"v. c #B0855C",
"b. c #B4895E",
"n. c #B9845C",
"m. c #898765",
"M. c #978663",
"N. c #8E9873",
"B. c #AB8861",
"V. c #B58C64",
"C. c #BA8D62",
"Z. c #BD9265",
"A. c #B9946A",
"S. c #BB9B72",
"D. c #B19C74",
"F. c #A9956E",
"G. c #92A37C",
"H. c #87A47E",
"J. c #B9A379",
"K. c #CB835C",
"L. c #C29366",
"P. c #C49769",
"I. c #C59A6C",
"U. c #CC9B6C",
"Y. c #CA9366",
"T. c #D19E6C",
"R. c #C59E71",
"E. c #D09F70",
"W. c #D6A16E",
"Q. c #CBA273",
"!. c #CCAA7C",
"~. c #C6A478",
"^. c #D4A473",
"/. c #DBA976",
"(. c #D5AB7A",
"). c #DCAD79",
"_. c #D7A874",
"`. c #DCB17E",
"'. c #CEA06F",
"]. c #E4AD79",
"[. c #E2B27C",
"{. c #EAB57C",
"}. c #F2B97E",
"|. c #7BA983",
" X c #79B68E",
".X c #6EC59B",
"XX c #62D7AB",
"oX c #7BF4C3",
"OX c #8AA981",
"+X c #8EB98F",
"@X c #BFAB80",
"#X c #C9AE81",
"$X c #C8B284",
"%X c #D3B283",
"&X c #DCB583",
"*X c #D4BA8B",
"=X c #DCBC8B",
"-X c #DCB987",
";X c #E4BA85",
":X c #ECBB83",
">X c #E3BD8A",
",X c #E7B883",
"<X c #F2BD84",
"1X c #F8BF83",
"2X c #86D1A5",
"3X c #88E5B6",
"4X c #8DC69C",
"5X c #DCC392",
"6X c #DBC28D",
"7X c #EBC38D",
"8X c #E6C18D",
"9X c #F4C48B",
"0X c #FBCA8E",
"qX c #F8C58A",
"wX c #E3C592",
"eX c #EBCA95",
"rX c #E8CC98",
"tX c #F2CC94",
"yX c #FACE93",
"uX c #F1CE99",
"iX c #EDD39D",
"pX c #E6D19D",
"aX c #FCD196",
"sX c #F4D49D",
"dX c #FBD59B",
"fX c #FDD99C",
"gX c #F6D097",
"hX c #F5DCA5",
"jX c #FCDCA2",
"kX c #F3DEA8",
"lX c #EAD6A5",
"zX c #FFE1A4",
"xX c #FDE4A9",
"cX c #F9E5AA",
"vX c #82FAC7",
/* pixels */
"                                                                                                                                                        ",
"                                                                                                                                                        ",
"                                                                                                                                                        ",
"                                                                                                                                                        ",
"                                                                                                                                                        ",
"                                                                                                                                                        ",
"                                                                                                                                                        ",
"                                                S.V.V.~.5XlX5X*X*X                                                                                      ",
"                                              &X!.S.A.S.%X5X5X=X5X5X                                                                                    ",
"                                            7XwX>X%X#X!.$X-XrXhXpXpXiX                                                                                  ",
"                0 0                         7XaXdXwX%X~.A.S.=XfXjXjXjX                                                                                  ",
"              9 0 0 0                     Y.7XaXjXtX-X~.B.A.-XdXjXzXfXaX                B                                                               ",
"                8 0 0 0                   v.Q.;X9X>X%X~.R.~.>XaXdXyX7X8X              B 0                                                               ",
"                  7 9 0 0                   x.Z.R.R.R.!.(.;X9X9X7X].W.Y.            A N q *                                                             ",
"                    0 l l x                 p.V.A.A.A.A.R.(.).,X/.W.Y.            r 0 < 7                                                               ",
"                      v x c n               S.#X%XS.c.0.u.u.d.V.L.Y.W.          . . . .                                                                 ",
"                      z z z n c             !.5XwXJ.9.! M h +.=.v.U.).        . . # X                                                                   ",
"                      k k z c D S           %XiXpX@X9.T g h @.*.d.W.{.9X    K j Q 4.8.      lXlXiXuX9X<X}.:X7XeXiX                                      ",
"                    j j k z n c S B         %XsXiX$Xm.~ b h +.>.K.].}.qX&Xc.W c 6.U./.    =X5XwXwX8X7X}.{.[.[.>XwXpX                                    ",
"                  m m n n z x V V 7 .       =XsXhX$X9.~ b h +.,.K.].9X9X`.A.3.4.v.].:X_.R.#X*X=X=X>X7X    /._.%X-X5XpX                                  ",
"                  &.#.#.F     ; + . . * ..S.wXsXgX!.z.W < = g %.d.(.:X>X`.Q.V.V.I.`._.P.V.V.S.~.!.          A.R.~.#X6XpX                                ",
"                <.;.*.%.#.      . . @ [ M.$XwXtX7X!.c.) N . d ! a.Q.-X;X).)._.^._._.Q.Z.a.0.                    i.S.%XwXrX              0X0X:X^.C.      ",
"                t.<.;.=.&.        9.M.J.#X-X>X&X(.Q.C.0.{ ^ ) 5.B.S.%X&X;X7XeX7X-X(.I.V.p.                        B.~.%X%X8X          ,X:X:X].P.b.      ",
"                t.r.<.,.          5XrXsXrXwX%XI.Z.P.I.Z.c.q.c.V.A.P.~.).:XtXfXsXrX$X                                B.A.~.`.7XqX0X<X[././.].E.C.x.      ",
"              t.t.t.t.r.          jXjXzXjX9X&X~.I.E.!.E.Y.Z.Z.A.I.I.^.&X>XtXjXuX>X~.                                8.a.Z.(.,X<X:X{./.^.E.U.L.b.a.      ",
"              <.r.t.t.t.        tX9XtXaXtX7X7XwX>X>X&X)._.T.U.Y.Q.).;X>X>X>X&X^.R.g.y.                                        )./.^.P.Z.V.V.v.c.        ",
"              r.r.t.t.          [.`.).[.,X;XeXhXhXeX&X/./.T.T.Y./.:X7XwX&X#Xd.1.>.t.r.<.                                        C.v.x.i.8.6.            ",
"            <.t.t.t.r.,.      v.b.b.x.V.A.!.=XlXiX>X!.I.P.U._.,X>X7XwX%XS.p.,.+.>.1.1.1.1.                                                              ",
"            r.t.g.g.<.=.#.    ! ! W Q ~ e.M.@X*X*X!.V.c.c.F.%XuXgXwX%XF.2.F F +.>.>.r.t.t.t.                                                            ",
"          <.<.f.g.g.,.&.F c - = = X . . H  .9.D.D.B.7.2.2.M.$XuXrX*XD.e.a * s M #.:.<.g.t.t.<.                                                          ",
"          ,.<.f.g.g.<.&.F n j f a a * > 0 Z [  .o.} E ^ [ 9.D.$X#XF.9.U = & s b F $.:.<.g.t.t.<.                                                        ",
"          ,.<.t.g.g.,.%.R n k k z z c x l > $ , @ . O i U o.M.M.m. .B q - a 4 v v m #.;.t.g.t.t.r.                                                      ",
"            r.t.g.g.;.%.+.n j k z c G x q & . . . . . 6 C Y  .o.[ p . & l l q 9       *.:.1.g.t.r.<.                                                    ",
"            ,.t.t.t.;.$.R n j k       V l 0 B B B B V B r r u C i 9 t N V V v         F #.=.r.t.r.<.<.                                                  ",
"            r.,.<.;.&.#.F k j           B C A Z S K K C < & . . X , N A Z Z V           n #.:.r.g.t.r.                                                  ",
"              =.*.$.#.F m x               r B B B C C B r 0 < , < r N V Z C C u           #.&.:.t.t.t.                                                  ",
"                c n c n z                   , 5 t t p i C A Z Z Z V V B B u i i             R *.;.t.t.                                                  ",
"                                              + @ $ 2 9 w A Z K Z C u u 9 6 6 6               *.r.t.t.                                                  ",
"                                              . . . X & - 0 w C i H y 2 * X X                   t.t.t.                                                  ",
"                                                q q q q > > 7 i p y y 2 @ @ $                   t.t.t.                                                  ",
"                                                } .. .[ p . . @ > & * , 6 y H `                 t.g.t.                                                  ",
"                                              0.w.m.M.o.P o . . + - = N H ] | j.              <.t.t.r.,.                                                ",
"                                              3.M.F.G.N. .A 6 e t S E [ X.X.j.|.              r.r.r.<.                                                  ",
"                                            I } 9.G.+XOXk.( U H P  .o.m.m.H.|.OXOX          g.t.;.;.:.                                                  ",
"                                          ; Z [ O.OX+XOXm.2. .X.j.k.OXG.G.G.OXOXk.          g.r.;.:.$.                                                  ",
"                                        & q S S  .O.k.k.4.3.N.|..X3X2X+XN.m.k.j.X. .      r.;.<.:.=.                                                    ",
"                                        S G T S P ` ` T +.-.OX4X3XvXoX.Xk.} U B Z ^       :.:.:.*.&.                                                    ",
"                                      p.0.u.i.7.2.E l s h -.N.4X3XvXoX XO.c a a b ..e.      $.$.#.                                                      ",
"                                      _.W.U.E.U.b.8.W f s S O.|. XXXXX|.] d a f ! 5.q.        F                                                         ",
"                                    9X:X:X:X<X{./.C.7.R f 8 ] X.j.h.' ' e - d G 4.p.c.                                                                  ",
"                                  qXyXaXaXgXyXtX:X).L.0./ C P ] ' ' ' J % < S _ 8.a.c.                                                                  ",
"                                qX0XaXfXfXhXfXaX0X:X[.L.w.^ C 6 2 t i $ @ r E { 0.a.a.                                                                  ",
"                              0X0XaXfXxXjXxXjXjXdXyX<X^.c./ N . . & - & + B E { 0.a.a.u.                                                                ",
"                            yXaXfXjXjXjXkXkXkXjXdXaXqX_.x./ D X . > < > , B U { 6.p.a.i.0.                                                              ",
"                            0XfXjXxXkXhXkXkXhXhXdXaX9X_.x.) D $ o 9 B 8 , r I / 3.u.p.i.i.u.                                                            ",
"                          qX0XfXxXxXkXkXkXkXhXjXgX9X,XU.c.) S , o 7 0 6 , B I { 3.u.a.x.p.p.i.                                                          ",
"                          qXqXfXjXxXcXkXkXkXhXgX9X:X_.L.0.} S , o 5 9 ; @ N L ) 3.0.i.a.a.a.p.                                                          ",
"                        qX0XaXfXjXkXkXkXkXcXjXaX9X].Y.v.7./ K 7 # 3 3 # o 0 L ) 3.0.p.a.a.a.i.i.                                                        ",
"                        aXfXfXzXhXkXkXhXkXjXjXyX:X/.C.u.3.~ K 0 ; ; ; o . 0 I ) 3.0.i.p.p.i.i.0.                                                        ",
"                        fXzXcXxXhXkXkXhXhXjXyX9X,XU.a.5.4./ L 0 5 3 ; . . 9 I ) 3.0.i.0.0.u.u.i.i.                                                      ",
"                        fXzXcXxXhXhXhXhXfXyX9X{._.Z.i.3.4.) L 0 @ : ; X . 9 T ) 3.0.i.q.0.i.i.i.i.                                                      ",
"                      qXaXfXxXxXlXhXhXdXaX0X:X_.L.v.q.6.5.{ L 8 O : : X . 9 L ) 3.q.i.0.0.i.x.a.i.0.                                                    ",
"                      [.qXfXzXzXhXjXdXyX9X:X/.L.x.a.i.0.7.2.I 5 . : : O . 0 L ) 3.0.u.0.0.i.a.a.0.5.                                                    ",
"                    Z.Q.{.0XaXfXaXaXaX9X:X/.P.x.p.a.v.a.0.4.E 5 . ; : O . 9 I ) 3.0.i.0.0.u.p.i.7.3.{                                                   ",
"                    x.Z./.:X0X0X0X0X0X<X_.L.x.0.7.i.x.a.0.2.Q , . ; 3 O . 9 L ) 3.0.u.q.0.0.p.0.7.2./                                                   ",
"                    p.V.W./.[.}.<X}.].].U.V.0.0.8.p.v.a.0.2.I 7 O 3 3 X . 9 Q { 7.q.i.u.0.0.u.0.3./ E                                                   ",
"                    0.p.C.L.'._./._.E.Y.C.x.0.0.u.a.  i.5.) K 8 ; 5 3 X . 0 W 2.7.i.p.i.u.i.i.w.2.~ S                                                   ",
"                    8.8.p.x.b.Z.L.L.C.x.i.0.0.0.          W V 8 3 3 : O . 0 I ) 5.u.a.a.i.0.7.2./ S A                                                   ",
"                    q.q.x.i.x.x.V.x.p.i.0.0.              K B 0 7 7 > # ; 9 V ~ 4.i.a.x.a.8.{ W I B r                                                   ",
"                    p.p.u.0.0.u.q.0.0.7.                    0 0 9 3   : 3 9 9 L 2.q.a.c.i.3.W A r 8 t                                                   ",
"                    u.q.0.0.0.0.0.7.7.0.                    9 9 0       7 9       3.6.8.3.) S 9 t 8 r                                                   ",
"                      7.0.0.i.i.0.0.0.i.                    0 N                     ~ ~ W I B u B N B                                                   ",
"                        3.3.5.7.3.6.q.                                                B B r r 0 B B N                                                   ",
"                        _ W W W W /                                                       r r r N r 0 7                                                 ",
"                          7 , 5 5 7                                                         B B 9 q 7 :                                                 ",
"                          . . . . .                                                           w 9 7 3 : ;                                               ",
"                          8 7 < 7 ,                                                               4 3 3 3 3                                             ",
"                        B r r r 0 9                                                               ; : 3 3 : :                                           ",
"                      B B B B B r 0 7                                                           : : : 3 4 3 : :                                         ",
"                    B B B B A B B 0 7 : : : : : : : : : : : 3 3 : : : : : : : : 3 : 3 , : : : : : : : : 3 3 : : 3                                       ",
"                      B B B N N 0 8 7 : : : : : : : : : : : : : : : : : : : : : : : : : : , 3 : : : : : : : 3 3                                         ",
"                          0 9 8 7 7 3 : : 3 : : : : : : : 3 : : 3 : : : : : 3 : : : : 3 : 3 3 3 3 : : : : :                                             ",
"                              : : : : : 3 : : : , 3 3 3 3 : 3 : : 3 3 3 3 : 3 : 3 5 3 ; 3 : : 3 : , : : :                                               ",
"                                                                                                                                                        ",
"                                                                                                                                                        ",
"                                                                                                                                                        "
};
