/* XPM */
static char *_41c15cce190461193cef1e15231a815DZRy5pRmK5mC0SAP[] = {
/* columns rows colors chars-per-pixel */
"86 86 57 1 ",
"  c #987856",
". c #997856",
"X c #9B7A57",
"o c #9B7A58",
"O c #9C7B58",
"+ c #9D7B59",
"@ c #9E7C59",
"# c #9F7D5A",
"$ c #A07D5A",
"% c #A27F5B",
"& c #A37F5B",
"* c #A3805B",
"= c #A3805C",
"- c #A4815C",
"; c #A5825D",
": c #A6825D",
"> c #A8835E",
", c #A8845E",
"< c #A8845F",
"1 c #AA855F",
"2 c #AA8560",
"3 c #AB8660",
"4 c #AB8760",
"5 c #AC8761",
"6 c #AF8962",
"7 c #AF8963",
"8 c #AF8A63",
"9 c #B08A63",
"0 c #B18A63",
"q c #B18B63",
"w c #B28C64",
"e c #B38C64",
"r c #B38C65",
"t c #B48D65",
"y c #B58E66",
"u c #B68F67",
"i c #B79067",
"p c #B89067",
"a c #B89068",
"s c #B99168",
"d c #BA9268",
"f c #BB9369",
"g c #BC9369",
"h c #BC936A",
"j c #BD946A",
"k c #BE956B",
"l c #BF956B",
"z c #BF966B",
"x c #BF966C",
"c c #C1976C",
"v c #C1986D",
"b c #C3986D",
"n c #C3996D",
"m c #C3996E",
"M c #C49A6E",
"N c #C59A6E",
"B c #C79C70",
/* pixels */
"NNNNNNBa5XXX+XX%19pccp7779<-@X+XX+%5taNNmmmmvpe9*@*<eilmMMl<@*1w9w9t97%++X+X+%3w99tlNB",
"ccccmmmi3@X@+++%<9pcNpe9991*Xo@@++;;9alNmzzmvle<=@%<eplmMMp<@*48779973%+++++@;3989wacc",
"twwwwww93;;;;-;<9pccclpie77%@&;;;;;;39alzmmmmpi7=@%;eimmct7;@@;33;3;<%%+%;;;;;<<;;5taj",
"==%%%%=;37779119tccvNccpp9<@@;4734<&@<9tlmBBvlt7;+%37jmmt<@X@@@@@%@%*@o+%<753<*@+&;5tw",
"+@@*@@@*<9999etplvNvmmmmi9<*@*7wt95;&&38ilmlla73=@%<7wli7*X@@@@*@*@+X@@=<etat8*@+X%;75",
";;3793;=;<<8epplvNvvzmmlp9<@@<wtkja8;&&3eaalaw3=@@@=<<9<<;;;<<;=<<;%@@;39pallt7;%+X%&;",
"37tlxa7<%@=3tlNmvmmmmMmlp7<*@*4wjNxw7;o=37tww4%@@@@@@@@*;7777777993=@%39pccNmat7;@@+++",
"talNNla9;%%39tacvMzzmmmlae1@@*37akja8;@o*3333=+X+@+o@@@*<eiitipwww3*@%<tlNNMmlaw;%o+&&",
"kkccvccu9<;;;3tlmmmmvmmlj93%oo%;9tat9;%+@-%%*@@o+@X+@*;7ilvljlllae<%X%4tamNMNlp9;++%<1",
"cmcmvcckp9;@+;3wimmlmmmlu7;%+o+%>9rr91%.@@@+@@@@@+++@-<epvNvccmlaw7*@%37axNmmlt7;=%>9e",
"cmbcvBmcp9;@+%7wlmmmlzli9>;%;%*;;;>1<-%@%;-&*=;;;;*+@;7elmNNNNNvliw3=*;3tallap7;;;<9pp",
"cmccxBccp9<*%;5iammmmlwe;&%<7333;%+%@++@;1913334<7<%@*7tpvmvcvvvmNat7;=*7wtpt9;%;7wpcv",
"mcmcxcBkt9>++;5tlmmmct9;&@;8waw7;%++%++%<9ttttwwee7*@-<eplNcmcmcmmmp9;%@*<775>%+%39amN",
"mmcmBcmkp9;%%;9plNmlt9;%&;9wilxi5;;>;%@@<9taaclppe<%@&1elcmmcmcmmNlpw;%X*=;;&%XX+%5taa",
"mmmccNbcp9;%%;9tcNcw9>+%;7txlmcjt7595>%%<9paNmmlp7<*@-<tavmcmcmcmmla95%++@*@++O@+X%<te",
"ckcmbccjt9;%+;>9aat73;%;5aacNBNcjttt9;++;9tllmmlpe<*O-9tpvmmcmcmmmla7>%+X+@o%;--;%%;17",
"uuxmxcpte91%X+%*<<;;%;>9ijzlmMmcllat5;++<7eiaapwpe4*@-<tpNmmcmcmmmmi9<*X  @*-9ep77;;*=",
"77acla9999<*X+@@@@++@;9tllBmmxNcmNct9;%-<7eee999e74*@&5eacmmmcmcmmli7<*@@@*<7pvclw4;@X",
"&29jaw32;>;;;><<--@-;;>9ilmzvvccmmcat9;;-<<<<<=<<<==@-5eccmmmmmcxlaie<*@@*<7evmmvp83=@",
"+&>tt3%+%%;;7tjp9111<;;;7wilMvBccmcmlp91-*@%O%%**@*X@;1tpmNmmmNNlpww91*@*<9icvvmvmjw33",
"@@;39;@XX+;9elNcat999-+%<7ijNvmcmcmmNpt5;*@+@@*@@@+OO;>talmccmlli7379<*@-7pcmmmxmmcpee",
";;;;=@@@*<7tccNNmapt7-XO*7ilBMcmmmclp91;;;;;=<;;;=%OO-9eaaalap973===-*@@*7wcNNmcmmmlja",
"73;*@o@*<9tlcmncvcpt5;+%<9plcBmcmmlp9<%%<77<747797<%O-59wtwww3;@@@@@@@@@;7eacmmmlmmlxx",
"aw7=@o+*1eplmmvnmNcp9>%%<7tpllcmmca91&O-<ettiw8wtt9<&-<917333;*@%;=*@@@@;4wllcmcmmmmmm",
"xlw7;@@*<eilNmvvmmclaw7<;-1ealMvlp9;;%><99epci78aaa9>;%%*<=**%;;eew7<*@@*7eiijlmmvmcmc",
"mmlw7*@%<9alMvvvmccmMpw<*@*<wamva9<@@;9999wlmpw7aNxt9;%@XO+X@;3wpvmi9;@@;8877ilmmmcmcm",
"llit7*@%<eaxmvvvmcmNmpt1%+*<eplat1;%=<9wetpcmliixNcxt9;*@oX**7wlzMmzp9<-;<<<<7ilvvNNmm",
"iiit7;@%<wizNMmMcmmmzle7%@*4ewi9<@*<4379elvmmlllmNNmct9;* @;7taxmxmxvpe<;;*@*<7ilvNNNN",
"37771;@@<8ammmMzmcmmcpt1%@%37995=@&3ww9tpmNvvmmmlxmmvli9;@@37plmmmmmlli7<@XXX*<7ilmlll",
"=*<<;*@*<eplmmzmcmmmlle<*+@%<;;;;;>8wtillmmmmmmmlaalmlai73;;<9palvmljii7<@ @X%*;<7e797",
"@@@@@@@*1eizMmzmmcmmmle<=+Xo@@@*3388walccmcmvmmmawwxmmlli9<*@;9wlmmdeee9<*@@@@@@****@*",
"==*@@@@*<7wlmmmxcmmcpp7<;%%%%+X%39w88tlmmcmcmclliwwlmmBmlt3*@*<wille1<81*@@X@@@@@@@@**",
"t995;%+@=;8tacNNmmllw7;%;;1<;%X%39t999tjccNNmliiiijlvmNvle<*X%39ipt5*%;%%@@+o@;3;;37ww",
"Ncjt5%%X+@;4tacNmmlt9=%%399w7;O@3899999taNmmNpeepNmmmmmvd8<***79t99;@o@@@@+++&3977waxm",
"NNlt5>+XXo@=7ewlllt9;%*;7tppt7;%;;799999ackcji78imMmmlliee-*+%;7<<;;*-%@@+@@&5watuaxNB",
"Nmjt5;%++o@@**<39t9;%%;7allllt7;&&;39t999ruree<7pmMmmlie<;*X@@**%%;;<<13*+@;99clNxNmBN",
"mcat5;%X++%+@XX%<9>@@;9pjcNNcpe7;+;;98859997999taNMNmje9;+X%@@+X++*<ett9<%%;7tccvmvmmc",
"Nmlt5;++%;;;;@X@-<;*;7tlcNNmmllt3;=;>33>;;;89taalmmMllp<;+XX@+X++%<epple9;;;<79wee777e",
"Bmlt5;X%>7954;@@X%*<7ilmcmmmcmcjt8;&@@&@+@;39akvmmMMmli7;@++%XX@*3walmNlp95;%%%%*%%%%%",
"lja9>%%;7ttt7=*XX@<7iammmcmcmmNcjt8;@+o+++&29tkcxllmli8<%%XX+++;4ealmNNcc95;+XO+@%%@@+",
"555;;;>7ejiw9;@@*<9ilccmcNcmcNmccat9;&+@;;;&&3ukaaaap9<%%+X+X%%>eivcvNNNcw7=Oo*<3797;*",
"%+@+%;9tlmle7;@@-7ilcmcmnvmcmcmcmcct8;+@383&+;8wtww9w1-++++X@;<9izmvvvNcjw<=@*=epmlt77",
"@%+X%<9pmmli<*@*19pvmNmcvnvmcmcmNBxu8>+&3983;33313335*%XX@%@-19almNmvvcdw72==27alNNlpi",
"5;%.O;9almle7*@*<epcmmcmvvmvmcmNNcca8;++;5tau8&@@%%==%@XX+%-5tpmlmcmvvpe7;==37plvmvllp",
"99<%%;5tclli7*@%>9ilmmmcmmzvmmcNcBjt8;&+;9accu&o@@@@+@@@++%>9ammmmmmvlt3=@@<9acNMvcmcm",
"lp93&;>9tcie7-@@<9plmmcmzmMMmljaka972&;29ujBBa3&%==@++X@Xo%3epmMNmmmmlt7*@*;9alNBvmcmm",
"ccp9>;&;9epe7-@%<9ilmmmcmMmmxjpe9t8&+&38txccxa93373*+.X.+.%>wplNmmmNmlp9;+@<9alNNmcmcm",
"Nclt7;+@<<99<*@%>9ilmmcmxlmzli9<952%&;8wccBNcju9ww3=++%%%%;>9ipccvlmlpt<*+%;9wimccmcmc",
"Nclt5;+X%%;;;%O%59pcNNNcapalp9<-;;;;<9tjlcmmvclpiw4<@*333=;&;3aapaalpe3=@+@@;4walcNvcv",
"mclt5;+O++++++.%<9acmNNmaee99<-X++-<9pccmmcmcvcca7<*@=37883&+;8we9tt77*@@+@@O*7wpcmvmm",
"Mca75;;&;>%&+-%-;5talmlp9<<7<*+X.+%5wjcBmmmcnNNva73@@=7wwww5&&;311<<<;*@-;%@X*<8plmvcm",
"Nmw3%;;9tp95;1>;-*5wpap7<*@**%+@+O&5wacNcccmcmvva73*@=4wacat33&&O%%+**<<<<<@@*17pcmNmc",
"Nmt*+;7tlmct99t7;@-19995;@Xo++@@X+-1tpvNmvvnvnMlai<@@*3wamma82#o@@@%$-99te<<@%1epcmmmm",
"Bl7*+%9alNcapppe<&%;<<>;;-%@X+@@++-1epvcvvnvvmNvp7<%@=7txmxw3&;=;95<19eppe7;@%<7pNmmxm",
"Bmw=+;3tlmmllcvpt9>%%O@%<3;*o+@@++%19pcmNcvNzmmlp81%@=3wlmj8&=38tpcdcpccaw7-@%<eilmmmx",
"lj9;%;9plmmmmNNvp9<%XO@<7e7;+@@@O+-19plmmNccmmmvjw7*@=3wima2o@3wpNNNNNnvat<-@%<eplmmmN",
"77339wallmmxMNNlpt<+++;1tat7;%%+O+;<waNNmmmmmNmzl9<%+-9tpaw;+%3tlmNNmmnNxw3=@=3wtpllmB",
"**;4waxmmlmmmNNlp7<*+%1tcmlt3;@XO+&5waxmmmmmmmmmp9<%X%5tti7%@%59plmmzmnvaw3=@=38eewlmM",
"XX=<eilmmmmNmmlj97;%*77plmci9;@+O+%<7wlllllllcljt9;;%;<17<<*+;3wlvmmmvMvx93=@&=84<7eaa",
"Xo@*<7tllNmNmlp81%%-<tavmmlt7<%+X+++=7tapiiptppi5;->>;%%%%@@+%3timmmmvMvxw3=@o&=**%=74",
"+@+X@<7icMmMlie<%+;7tucmmclw9;=+@@@@@;7797999999;+%595;++@+.@;59ammmmmmlaw7=@o@@@@@@@@",
"@+X+@=;49twwe7<<%;19axcNmmct4;@+*;*-=<<<<<<;;>>;;%5taw7;;%%++;79ijlmmmllaw7*@@&===**@*",
"+X@+@@@=*==<****<5taNmmcNclw7;%@=471<<*@&@&@&++&;5rjlcjpe5;%+&59wwpmmxatww3=@#3333141<",
"%%@@@@@@@@@@@XX*<waxmmcmmcct7;@@47tte<@@++@&@++&>99jmmNmct5&%&7917eplpw3773;@=4wtwweee",
";<*@X**;77<<-O.%>9pNBccmNmjw8;+&37wpa7%o%;<;%;;>;<5tjmNmcat9>;;>;;>599;;;;;;>9tlaajppl",
"e7<@@=<tilpe1*O%>9pvmmmcNmli8;@@;7amle*@;393779>;%-59plmNccp9<%%+%%%%+%++%=>7tamNxxmvm",
"77<*;5tcmmNpe1--<5tpcmmccxat8;&@;7pcvw*@<9tara97;+%;9plmmcjt5;%OXX++@%+&oX&;7pcNmmmmll",
"*;;<3tplcmmlp91--&5talmmaaat9;@&39pcme*@;wtacat8%+@;9pcmcjt5;%+OX+%%<>;;&+@;7plNmmmlii",
"+@;3taNmcmcmvpe<%+-1waNlp9998;&@>9pcmt%@;9amcjt5*@%19acNc95;++@@X+*39t99;+@39plmNNmi97",
"X+;7tlcNmmNmcvpe<%&;5tlp9<<<;&+&;9ammw%@;9tjlat3;@%<9plpw<%@XXX@+o*19ept9@&;9talllat77",
"o+;3wlcmmcmcmcli95&+-9tt<%=@&@+&;9tmcw%+>9ttttw8*@%<wtiw3*+++X@+X+*<7icl9@@;9wttiwwwe7",
".%=7tacmcmcmcNmla91-+;9<-@o@o+o&<9pcce%+;5999998;@%<7777;@+@@%@@++*<9pcm9;@>9w99779777",
"++;7tclmmcmccmmmcp91;;<;-;;;;%+%<9tlp9%+*=;*<<77<@%%<-;;;-;;%<<<%@%;9amcp5<;;;<;<<<<-<",
"X%;;wammcmcmmvmcNcct5;@@;<995;+%37tte<@XX@*@*<ee<@X@++@@;<<7799>;@*;9accp91;%%%@@@@@@@",
"X@;7tccmmmmcvmlmccjw<;@;9ttt9>%+;373<;;**%*@@*11;+@@%%*;5wptwt97<@@;9almla5&X.+o@X@@*@",
"X@;<tacNmmmmmNmmla9<%;*7tcpt5;++*;;*;;;<<=;<<--*%+%;<79tpjllcpt7;@%<9acNlt5;+oXo@ X*<<",
"++;5tpcNmcccmcNli73@@-7waNct9-%.+@@+*;779999<<-@X+*<9plmNmcmcat7;%%;9tccat7;+++@XX*<77",
"%%;;9tjlllcaxxmp73=*%79lmNcp99;%@++@%4eitptai7<@+X-<tpvNNmNNNct7;O%>9ppct7;&o&****-7ii",
"5>;%;5tawututap9<%=;9tllmcccjr9;%+*;3tpvllmlle7-@+%<tlNNmmmNNli7;%%;9tjr7;&oo=<7<<<pll",
"t91*+;999897397<%+=3talmmmbNcct<%+%5tacmNmmNvli7;@%;9tlcmccmcat5-+%-99953ooX@=39eeelmm",
"ai93%%--<<<<<<<;@+*3tcmMMMNNNat9=@&38amMmMmMmlpt7;;;>9tlcNccjw3;+oO-<><--@+.@-7eeijlmM",
"Nmt91**@@@*@@@%++@;4eamNBMNNmat<=@&3waxmmcmlmcmlw73*&>9tjNcj93;@+XO@@-@&O@@O+-<9dlmmMz",
"Nclp9;*O@X@X@XX++@=<9pplcclclaw9=@+2wamNMmMlmmmcj9<*+@;9ulat7;%@%&-&@@O.@@@X+-79immmzM",
"mmccp9<<%OX+X@+@+@@;<<97917tatw5&+%3walMmlMmmmmmat<=@@%;375<;;;58t99<-%O@@@+@%<wizmmmm",
"cmcNcte<%@X@@@@@@@@@%@%+@+;7ww77;@=39almmccmcmmlat5*+++%+%++@;3wamlt9<-OX%OO@*<7pMmmmm",
"mcmmmit<*@@@@@@@@@@XoXX. X*39w93%*%39pcNmmmcmmmlaw5&+oX++.ooo;3wcmNa9>&OO+$O@*4eilmmzm"
};
