/* XPM */
static char *_21ec0dd17e84731e004ba97538691617wUxgvYppyMKJWSY[] = {
/* columns rows colors chars-per-pixel */
"86 86 51 1 ",
"  c #F76520",
". c #F76720",
"X c #F76820",
"o c #F76821",
"O c #F76B22",
"+ c #F76C22",
"@ c #F76E22",
"# c #F86D22",
"$ c #F86F23",
"% c #F87023",
"& c #F87123",
"* c #F87324",
"= c #F87424",
"- c #F87524",
"; c #F87525",
": c #F87625",
"> c #F87825",
", c #F97B26",
"< c #F97B27",
"1 c #F97C27",
"2 c #F97F28",
"3 c #F98028",
"4 c #FA8329",
"5 c #FA852A",
"6 c #FA882A",
"7 c #FA882B",
"8 c #FB8B2C",
"9 c #FB8C2C",
"0 c #FB8D2C",
"q c #FB8E2D",
"w c #FC902D",
"e c #FC922E",
"r c #FC942F",
"t c #FC952F",
"y c #FC9730",
"u c #FD9730",
"i c #FD9830",
"p c #FD9930",
"a c #FD9B31",
"s c #FD9C31",
"d c #FE9F32",
"f c #FEA032",
"g c #FEA334",
"h c #FEA434",
"j c #FFA835",
"k c #FFAC37",
"l c #FFAD37",
"z c #FFAF37",
"x c #FFAF38",
"c c #FFB038",
"v c #FFB53A",
/* pixels */
"llllllllllllllllllllllllllllllllllllllllllllllllllllllllllllllllllllllllllllllcla>@@##",
"llllllllllllllllllllllllllllllllllllllllllllllllllllllllllllllllllllllllllllllcly2#&->",
"lllllllllllllllllllllllllllllllllllllllllllllllllllllllllllllllllllllllllllllcccy1-4ee",
"lllllllllllllllllllllllllllllllllllllllllllllllllllllllllllllllllllllllllllllcvcy1>efj",
"llllllllllllllllllllllllllllllllllllllllllllllllllllllllllllllllllllllllllllllhhe>1rcv",
"llllllllllllllllllllllllllllllllllllllllllllllllllllllllllllllllllllllllllxcxhd81-1acc",
"lllllllllllllllllllllllllllllllllllllllllllllllllllllllllllllllllllllllllllcld8;##4rxc",
"lllllllllllllllllllllllllllllllllllllllllllllllllllllllllllllllllllllllllllccd4. *2ylc",
"llllllllllllllllllllllllllllllllllllllllllllllllllllllllllllllllllllllllxjccxd5% @1alc",
"llllllllllllllllllllllllllllllllllllllllllllllllllllllllllllllllllllllllxlxcxd8%.*3rlc",
"llllllllllllllllllllllllllllllllllllllllllllllllllllllllllllllllllllllllxxcha94$@X1alc",
"llllllllllllllllllllllllllllllllllllllllllllllllllllllllllllllllllllllllccha5>-$@X1rjc",
"lllllllllllllllllllllllllllllllllllllllllllllllllllllllllllllllllllllxllxjf8$o*---5fjl",
"lllllllllllllllllllllllllllllllllllllllllllllllllllllllllllllllllllllcclha81$#.-39fhlc",
"lllllllllllllllllllllllllllllllllllllllllllllllllllllllllllllllllllllccxa4%*-*o-9hllll",
"lllllllllllllllllllllllllllllllllllllllllllllllllllllllllllllllllllllljd8;.@*>>5fjvlll",
"lllllllllllllllllllllllllllllllllllllllllllllllllllllllllllllllljxxccjr51*#o.2egjlclll",
"llllllllllllllllllllllllllllllllllllllllllllllllllllllllllllllllxxlcld4*&--&-8fcclllll",
"llllllllllllllllllllllllllllllllllllllllllllllllllllllllllllllllccxgd8>oo&-29ajcclllll",
"llllllllllllllllllllllllllllllllllllllllllllllllllllllllllllllllccjy4>--#o-ehjclllllll",
"lllllllllllllllllllllllllllllllllllllllllllllllllllllllllllxllllxld8*o--&-5dlvclllllll",
"lllllllllllllllllllllllllllllllllllllllllllllllllllllllllllxccclgy8>&o.-59fjclllllllll",
"llllllllllllllllllllllllllllllllllllllllllllllllllllllllllxcccvla4**-&o>8flcllllllllll",
"lllllllllllllllllllllllllllllllllllllllllllllllllllllllllljjhhjf8-.@---5dlccllllllllll",
"llllllllllllllllllllllllllllllllllllllllllllllllllllllxxcvja98981-@o#2edjlclllllllllll",
"lllllllllllllllllllllllllllllllllllllllllllllllllllllllxccg8*@*---*@*8hcclllllllllllll",
"llllllllllllllllllllllllllllllllllllllllllllllllllxclhfdfdr2@o@##--38fjcccllllllllllll",
"llllllllllllllllllllllllllllllllllllllllllllllllllcvcf95454>*&**@o>edhclclllllllllllll",
"llllllllllllllllllllllllllllllllllllllllllllllxclclxha<oo-***---==5flvllllllllllllllll",
"llllllllllllllllllllllllllllllllllllllllllllllxcccjfa5-#@###&#@*59fhccllllllllllllllll",
"llllllllllllllllllllllllllllllllllllllllllllllccvche----*--*&o.-8fllllllllllllllllllll",
"llllllllllllllllllllllllllllllllllllllllllllxjhhjha4@.****-14225dlvcllllllllllllllllll",
"llllllllllllllllllllllllllllllllllllllcccccvchy88e5>#@##.@-qddadhxclllllllllllllllllll",
"lllllllllllllllllllllllllllllllxlllllllcjxccjd4%*;;;**-*@#5flllhjlxlllllllllllllllllll",
"llllllllllllllllllllllllllcxllcclcccchffdddgf8;oo@*@-25955yhcvccxljlllllllllllllllllll",
"llllllllllllllllllllllllllchlxcccccvcf85554852;%*;@.@4ahfgghlclclxxlllllllllllllllllll",
"llllllllllllllllllllllllllllxlhhljhlje>o@*$$&*--;===>ejcccclllllllllllllllllllllllllll",
"llllllllllllllllllllllccxxxxxhdyarddr8-o#$$$#*#-@@;4eflcccclllllllllllllllllllllllllll",
"llllllllllllllllllllxlcccccvxa42-4133>>--*---*##o@1dhclcccllllllllllllllllllllllllllll",
"llllllllllllllllllllxjjhjhjjg8-o@o&##&--*-**-->4>1efvccjllllllllllllllllllllllllllllll",
"llllllllllllllllcccvlft99eea94-o#&&&*#*#*#@.*49darfjccllllllllllllllllllllllllllllllll",
"lllllllllllllllclccvlt>*-------------**#&&#@=8hccjclllllllllllllllllllllllllllllllllll",
"llllllllllllllclhddff9-oo##$$$***--*-<5895558ajvccclllllllllllllllllllllllllllllllllll",
"lllllllllllxxvcjd55551-&*****$####o.*5ahfdddghlxccllllllllllllllllllllllllllllllllllll",
"llllllllxllxhxxd8*.*&-*------->-->-&-yhcccxxxlllllllllllllllllllllllllllllllllllllllll",
"llllllllcxgddaa92@.@@&----*$-59eqee9edxcccxxccllllllllllllllllllllllllllllllllllllllll",
"lllllllcccd8-222--*-*-----*.*8fjjjhhfxxxxlllllllllllllllllllllllllllllllllllllllllllll",
"llllllllxgy2..#**-----*-***-4alvccccccjxxxllllllllllllllllllllllllllllllllllllllllllll",
"lllllccjfe4;@@@*----$-*@.#<8ahlccclcclllllllllllllllllllllllllllllllllllllllllllllllll",
"llllccch9-*;====----**$$@@8flcllllllllllllllllllllllllllllllllllllllllllllllllllllllll",
"llllljhe4@.;>===---&-<7755ehvcllllllllllllllllllllllllllllllllllllllllllllllllllllllll",
"lllchd95;**%=>==--&o-7addfhxccllllllllllllllllllllllllllllllllllllllllllllllllllllllll",
"llccje-#*---=>==--#&1ajcxlllllllllllllllllllllllllllllllllllllllllllllllllllllllllllll",
"lllvfe&o$---==**@&15rfcvccclllllllllllllllllllllllllllllllllllllllllllllllllllllllllll",
"llcvlr>#**--&-@oX@5sjlllclllllllllllllllllllllllllllllllllllllllllllllllllllllllllllll",
"llllf9>&*---->13>1ehvcllllllllllllllllllllllllllllllllllllllllllllllllllllllllllllllll",
"xxfa84-**-***7yyrrfjccllllllllllllllllllllllllllllllllllllllllllllllllllllllllllllllll",
"cjd5**----*$2yhhjllllcllllllllllllllllllllllllllllllllllllllllllllllllllllllllllllllll",
"cje>.#--;-*O-ycvvlclllllllllllllllllllllllllllllllllllllllllllllllllllllllllllllllllll",
"xxa4o#--;-$.<accccllllllllllllllllllllllllllllllllllllllllllllllllllllllllllllllllllll",
"xla1#*----*#2yhcllllllllllllllllllllllllllllllllllllllllllllllllllllllllllllllllllllll",
"vla4##-**--5qgjcllllllllllllllllllllllllllllllllllllllllllllllllllllllllllllllllllllll",
"vca1O***.*5ajhccllllllllllllllllllllllllllllllllllllllllllllllllllllllllllllllllllllll",
"lje4*#-**<yhvxxxllllllllllllllllllllllllllllllllllllllllllllllllllllllllllllllllllllll",
"a99>&-*15adlccllllllllllllllllllllllllllllllllllllllllllllllllllllllllllllllllllllllll",
"11>--#&5fjllllllllllllllllllllllllllllllllllllllllllllllllllllllllllllllllllllllllllll",
"@@@-**#8fvvlllllllllllllllllllllllllllllllllllllllllllllllllllllllllllllllllllllllllll",
"**-&*..4fcclllllllllllllllllllllllllllllllllllllllllllllllllllllllllllllllllllllllllll",
"----***4flllllllllllllllllllllllllllllllllllllllllllllllllllllllllllllllllllllllllllll",
"----;18ehlclllllllllllllllllllllllllllllllllllllllllllllllllllllllllllllllllllllllllll",
"--&&19dhllllllllllllllllllllllllllllllllllllllllllllllllllllllllllllllllllllllllllllll",
"--+*3alvclllllllllllllllllllllllllllllllllllllllllllllllllllllllllllllllllllllllllllll",
"--#X4yxvclllllllllllllllllllllllllllllllllllllllllllllllllllllllllllllllllllllllllllll",
"--@X-ehcxlllllllllllllllllllllllllllllllllllllllllllllllllllllllllllllllllllllllllllll",
"-->18djcllllllllllllllllllllllllllllllllllllllllllllllllllllllllllllllllllllllllllllll",
"*-5efhxxlllllllllllllllllllllllllllllllllllllllllllllllllllllllllllllllllllllllllllxxx",
"@*8gxxxjllllllllllllllllllllllllllllllllllllllllllllllllllllllllllllllllllllllllllllll",
".-yxvxchlllllllllllllllllllllllllllllllllllllllllllllllllllllllllllllllllllllllllllhdd",
".*8gccxxllllllllllllllllllllllllllllllllllllllllllllllllllllllllllllllllllllllllccjy84",
"*<egccxxllllllllllllllllllllllllllllllllllllllllllllllllllllllllllllllllllllllllcch9$.",
"9ydjclllllllllllllllllllllllllllllllllllllllllllllllllllllllllllllllllllllllllllcch9-o",
"hhjlllllllllllllllllllllllllllllllllllllllllllllllllllllllllllllllllllllllllllllcche-#",
"ccclllllllllllllllllllllllllllllllllllllllllllllllllllllllllllxlllllllllllllllllccje>#",
"ccllllllllllllllllllllllllllllllllllllllllllllllllllllllllllllxjllllllllllllllllcch9>#",
"xjcjllllllllllllllllllllllllllllllllllllllllllllllllllllllllxxxxllllllllllllcxllcche;@",
"xlccllllllllllllllllllllllllllllllllllllllllllllllllllllllllxjjxlllllllllllljcllccj9-@"
};
